<svg xmlns="http://www.w3.org/2000/svg" viewBox="0 0 280 404">
    <defs>
        <style>
            .cls-1{fill:none}.cls-2{fill:#fff}.cls-3{fill:#0477be}.cls-4{fill:#5ead5d}.cls-5,.cls-9{fill:#317e3d}.cls-6{fill:url(#linear-gradient)}.cls-7{fill:#33c1f1}.cls-8{fill:#00a9e2}.cls-9{opacity:.7}.cls-10{fill:#90a7b1}.cls-11{fill:#bdd8e4}.cls-12{fill:#9fb9c8}.cls-13{fill:#854d20}.cls-14{fill:#a16026}.cls-15{fill:#00aa4f}.cls-16{fill:#009549}.cls-17{fill:#00af4c}.cls-18{fill:#00ac4e}.cls-19{fill:#c7c7c7}.cls-20{fill:#ededed}.cls-21{fill:#b3b3b3}.cls-22{fill:#dbdada}.cls-23{fill:#f6f6f6}.cls-24{fill:#d46d2c}.cls-25{clip-path:url(#clip-path)}.cls-26{fill:#8c4715}.cls-27{fill:#f8b231}.cls-28{fill:#81b9b5}.cls-29{fill:#a5d2d0}.cls-30{fill:#d5edec}.cls-31{fill:#c0dedd}.cls-32{fill:#dcf1f5}.cls-33{fill:#0b94d2}.cls-34{fill:#0083bf}.cls-35{fill:#2fb44a}.cls-36{fill:#7d7e81}.cls-37{fill:#5b6a72;stroke:#5b6a72;stroke-miterlimit:10;stroke-width:.25px}.cls-38{fill:#d7442b}.cls-39{fill:#b33225}.cls-40{fill:#b1c6c5}.cls-41{fill:#c4d5d5}.cls-42{fill:#9cb1b0}.cls-43{fill:#f7941d}
        </style>
        <linearGradient id="linear-gradient" x1="1.021" x2=".428" y1="-.94" y2=".928" gradientUnits="objectBoundingBox">
            <stop offset="0" stop-color="#010101"/>
            <stop offset="1" stop-color="#010101" stop-opacity="0"/>
        </linearGradient>
        <clipPath id="clip-path">
            <path id="패스_1365" d="M165.7 73.3a14.142 14.142 0 0 0-10.5 3.8 11.606 11.606 0 0 0-3.6 9.2h1.8a11.782 11.782 0 1 0 12.3-13z" data-name="패스 1365"/>
        </clipPath>
    </defs>
    <g id="심볼_22_1" data-name="심볼 22 – 1" transform="translate(-2104 653)">
        <g id="그룹_513" data-name="그룹 513">
            <path id="사각형_98" d="M0 0h280v404H0z" class="cls-1" data-name="사각형 98" transform="translate(2104 -653)"/>
            <g id="그룹_512" data-name="그룹 512" transform="translate(2108 -652)">
                <path id="패스_1188" d="M18 46.5h-6.6Q0 46.5 0 36.3V0h11.7v34.4a2.06 2.06 0 0 0 2.3 2.3h4zm2.3 0v-9.8h4a2.06 2.06 0 0 0 2.3-2.3V0h11.7v36.3c0 6.8-3.8 10.3-11.4 10.3h-6.6z" class="cls-2" data-name="패스 1188"/>
                <path id="패스_1189" d="M245.6.1v46.3H234V.1zm2.4 31.8v-9.2h10.4a2.06 2.06 0 0 0 2.3-2.3v-8.7a2.06 2.06 0 0 0-2.3-2.3H248V.1h12.9c7.6 0 11.4 3.4 11.4 10.3v11.2c0 6.8-3.8 10.3-11.4 10.3H248z" class="cls-2" data-name="패스 1189"/>
                <path id="패스_1190" d="M18 400.6h-6.6c-7.6 0-11.4-3.4-11.4-10.3V364c0-6.8 3.8-10.3 11.4-10.3H18v9.2h-4a2.06 2.06 0 0 0-2.3 2.3V389a2.06 2.06 0 0 0 2.3 2.3h4zm2.3-37.6v-9.2h6.6c7.6 0 11.4 3.4 11.4 10.3v6.4H26.6v-5.1a2.06 2.06 0 0 0-2.3-2.3h-4zm0 37.6v-9.2h4a2.06 2.06 0 0 0 2.3-2.3V384h11.7v6.4c0 6.8-3.8 10.3-11.4 10.3h-6.6z" class="cls-2" data-name="패스 1190"/>
                <path id="패스_1191" d="M68.3 370.1l-6.1 11.2L46.9 354h12.5zm-4.9 13.5l-.1-.2 16.1-29.3h12.5l-16.6 29.5v16.7H63.4z" class="cls-2" data-name="패스 1191"/>
                <path id="패스_1192" d="M118.5 400.6H112c-7.6 0-11.4-3.4-11.4-10.3V364c0-6.8 3.8-10.3 11.4-10.3h6.6v9.2h-4a2.06 2.06 0 0 0-2.3 2.3V389a2.06 2.06 0 0 0 2.3 2.3h4v9.3zm2.3-37.6v-9.2h6.6c7.6 0 11.4 3.4 11.4 10.3v6.4h-11.7v-5.1a2.06 2.06 0 0 0-2.3-2.3h-4zm0 37.6v-9.2h4a2.06 2.06 0 0 0 2.3-2.3V384h11.7v6.4c0 6.8-3.8 10.3-11.4 10.3h-6.6z" class="cls-2" data-name="패스 1192"/>
                <path id="패스_1193" d="M159.4 400.3h-11.9V354h11.9zm2.3 0v-9.8h19.4v9.8z" class="cls-2" data-name="패스 1193"/>
                <path id="패스_1194" d="M201.6 354.1v46.3h-11.9v-46.3zm2.3 9.5v-9.5h20.6v9.5zm0 17.4v-9.2h20v9.2zm0 19.3v-9.5h20.6v9.5z" class="cls-2" data-name="패스 1194"/>
                <path id="패스_1195" d="M244.8 354.1v46.3h-11.7v-46.3zm2.3 9.2v-9.2H260c7.6 0 11.4 3.4 11.4 10.3v9.5q0 7.65-6.3 9.6l7.2 17.5h-12.2l-7-16.8h-5.9V375h10.4a2.06 2.06 0 0 0 2.3-2.3v-6.9a2.06 2.06 0 0 0-2.3-2.3h-10.5z" class="cls-2" data-name="패스 1195"/>
                <path id="사각형_91" d="M0 0h160.6v11.4H0z" class="cls-2" data-name="사각형 91" transform="translate(50.6 13.9)"/>
                <g id="그룹_414" data-name="그룹 414">
                    <g id="그룹_413" data-name="그룹 413">
                        <path id="패스_1196" d="M134 238.7c-72.6 0-131.5-19.5-131.5-43.5 0 74.1 58.9 134.1 131.5 134.1s131.5-60.1 131.5-134.1c0 24-58.9 43.5-131.5 43.5z" class="cls-3" data-name="패스 1196"/>
                    </g>
                </g>
                <ellipse id="타원_341" cx="131.5" cy="43.5" class="cls-4" data-name="타원 341" rx="131.5" ry="43.5" transform="translate(2.5 151.7)"/>
                <path id="패스_1197" d="M265.4 196.3c-1.8 23.5-60 42.4-131.4 42.4S4.4 219.8 2.6 196.3v.1a122.234 122.234 0 0 0 .8 13.5C14 231 68.4 247.1 134 247.1s120-16.1 130.7-37.2c.4-4.5.7-9 .7-13.6z" class="cls-5" data-name="패스 1197"/>
                <path id="패스_1198" d="M169.7 237.3s-3.4 40.9-10.5 63.6c-2.3 7.3 36.5 2.2 36.5 2.2s5.1-12.4 6.2-30.8c.8-12.9-.1-38-.1-38z" class="cls-6" data-name="패스 1198"/>
                <path id="패스_1199" d="M233 281a5.916 5.916 0 0 0-8.4.8 118.206 118.206 0 0 1-110.3 40.9A116.839 116.839 0 0 1 33 266.9l14.3-6.8-29.1-10.4-10.5 29 14.4-6.8a128.961 128.961 0 0 0 90.2 62.5 130.1 130.1 0 0 0 121.5-45 6.006 6.006 0 0 0-.8-8.4z" class="cls-2" data-name="패스 1199"/>
                <g id="그룹_417" data-name="그룹 417">
                    <g id="그룹_415" data-name="그룹 415">
                        <path id="패스_1200" d="M201.6 229.5c-16.3-14.8-58.3-21.6-49.6-34.1 11.5-16.5 74.8-19.6 99.3-19.9l-3.5-2.1c-1.5-.1-6.6-.4-8.2-.5-75.3-1.6-126.6 23.9-102.9 40.9 37.3 26.7 31.1 23.5 31.1 23.5l-.2 59.4a3.806 3.806 0 0 0 4.9 3.8 6.608 6.608 0 0 0 4.9-6.1v-13a3.641 3.641 0 0 1 2.8-3.6 2.332 2.332 0 0 1 2.8 2.2v9.4a2.766 2.766 0 0 0 3.6 2.8 4.921 4.921 0 0 0 3.6-4.6v-8.9a4.264 4.264 0 0 1 3.2-4.1l.3-.1a2.359 2.359 0 0 1 2.9 2.4v3.5a2.569 2.569 0 0 0 3.4 2.6 4.475 4.475 0 0 0 3.4-4.2v-45.3a4.572 4.572 0 0 0-1.8-4z" class="cls-7" data-name="패스 1200"/>
                    </g>
                    <g id="그룹_416" data-name="그룹 416">
                        <path id="패스_1201" d="M203.3 254.9v-21.4s-1.3 11.5-3.4 10.3-.5-9.3-2.8-8.5-1.5 24.8-3.8 27.2-.5-26.3-5.1-25.1-.7 12-4.7 14.8c-4 2.7-4.3-9.3-4.5-12.8s-4.4-3.3-4.4.8-4.5 5.3-5.6 2.7a25.16 25.16 0 0 1-1.1-5.6l-.2 59.4a3.806 3.806 0 0 0 4.9 3.8 6.608 6.608 0 0 0 4.9-6.1v-13a3.641 3.641 0 0 1 2.8-3.6 2.332 2.332 0 0 1 2.8 2.2v9.4a2.766 2.766 0 0 0 3.6 2.8 4.921 4.921 0 0 0 3.6-4.6v-8.9a4.264 4.264 0 0 1 3.2-4.1l.3-.1a2.359 2.359 0 0 1 2.9 2.4v3.5a2.569 2.569 0 0 0 3.4 2.6 4.475 4.475 0 0 0 3.4-4.2V255a.31.31 0 0 0-.2-.1z" class="cls-8" data-name="패스 1201"/>
                        <path id="패스_1202" d="M186.6 301.1a4.921 4.921 0 0 0-3.6 4.6v13.8a2.766 2.766 0 0 0 3.6 2.8 4.921 4.921 0 0 0 3.6-4.6v-13.8a2.766 2.766 0 0 0-3.6-2.8z" class="cls-8" data-name="패스 1202"/>
                        <path id="패스_1203" d="M200 288.5a4.475 4.475 0 0 0-3.4 4.2v18.4a2.569 2.569 0 0 0 3.4 2.6 4.475 4.475 0 0 0 3.4-4.2v-18.4a2.569 2.569 0 0 0-3.4-2.6z" class="cls-8" data-name="패스 1203"/>
                    </g>
                </g>
                <path id="패스_1204" d="M248.4 120.9a128.694 128.694 0 0 0-84-52.8 5.984 5.984 0 0 0-2 11.8 117.592 117.592 0 0 1 96.2 135.7 118.542 118.542 0 0 1-13.3 37.7l-13-9 5.5 30.4 30.4-5.5-13.1-9a130.145 130.145 0 0 0-6.7-139.3z" class="cls-2" data-name="패스 1204"/>
                <path id="패스_1205" d="M112.8 230.2s18.9.7 32.5.7c6.8 0 36-.9 56.3-13.6l-8.3-1.9c1.2-.5-34.6 12.1-70.7 7.5-.1-.1-17.9 4.8-9.8 7.3z" class="cls-9" data-name="패스 1205"/>
                <path id="패스_1206" d="M150.4 70.4l-19.9-23.6-1.3 15.9A129.744 129.744 0 0 0 1.9 170.6a128.339 128.339 0 0 0 6.2 66.7 6.021 6.021 0 0 0 5.6 3.9 5.223 5.223 0 0 0 2.1-.4 5.954 5.954 0 0 0 3.5-7.7 116.8 116.8 0 0 1-5.6-60.6c9.5-55.7 58.3-97.2 114.4-97.9l-1.3 15.7z" class="cls-2" data-name="패스 1206"/>
                <g id="그룹_420" data-name="그룹 420">
                    <g id="그룹_418" data-name="그룹 418">
                        <path id="패스_1207" d="M142.9 164.9L168 161l-29.8-70.8-13.7 6.9-30.3-47.2 27.6 115.9c2 2.4 17.3 4.7 21.1-.9z" class="cls-10" data-name="패스 1207"/>
                        <path id="패스_1208" d="M38.2 157.5c4 6.9 16.3 11.3 31.2 13L94.2 49.9l-21 41.5-7.2 3.4z" class="cls-11" data-name="패스 1208"/>
                        <path id="패스_1209" d="M121.8 165.8L94.2 49.9 69.4 170.5c17 2 37.2.5 52.4-4.7z" class="cls-12" data-name="패스 1209"/>
                    </g>
                    <g id="그룹_419" data-name="그룹 419">
                        <path id="패스_1210" d="M202.2 168.5l20.1-2.7-19.6-32.4-14.8-9.5-2.3-9.2-6.4-2.2L164 92.9l21.3 76.3c1.6 1.6 13.8 3 16.9-.7z" class="cls-10" data-name="패스 1210"/>
                        <path id="패스_1211" d="M118.6 164.2c3.2 4.5 13 7.3 24.8 8.4L164 92.9l-10.2 7-6.8 20.5-5.8 2.3z" class="cls-11" data-name="패스 1211"/>
                        <path id="패스_1212" d="M185.3 169.2l-4.8-35.3-6.6-5.5-9.9-35.5-18.8 73.1-1.7 6.7c13.5 1.1 29.7.1 41.8-3.5z" class="cls-12" data-name="패스 1212"/>
                        <path id="패스_1213" d="M145.6 153.6l3.4-6.9 24.9-18.3 6.7 5.4z" class="cls-11" data-name="패스 1213"/>
                        <path id="패스_1214" d="M187.8 123.8l-8.1-3.4-5.8 8z" class="cls-12" data-name="패스 1214"/>
                    </g>
                    <path id="패스_1215" d="M138.1 90.2l-13.7 6.9 8.1 5.7z" class="cls-12" data-name="패스 1215"/>
                </g>
                <path id="패스_1216" d="M28.6 168.1c-.1-1.2 18-33.5 65-9.1 50 25.8-63.4 23.9-65 9.1z" class="cls-4" data-name="패스 1216"/>
                <g id="그룹_421" data-name="그룹 421">
                    <path id="패스_1217" d="M190.7 215.9a16.707 16.707 0 0 1-4.4-1.1c-25.2-10-36.8-1.4-47.2 5.9-7.8 5.5-23.5 11.7-33 11.2-44.4-2.5-72.6-14.9-84.8-27.2a10.443 10.443 0 0 1-3.1-5.4c0 2.4 2.1 5.1 3.9 7 12.2 12.3 40.5 24.7 84.8 27.2 9.5.5 24.4-4.9 32.2-10.4 10.4-7.3 22.3-16.8 47.5-6.8a22.9 22.9 0 0 0 6.8 1.4c40.4 1.8 62.4-22.3 64.5-34.6-2 13.6-31.2 37.7-67.2 32.8z" class="cls-10" data-name="패스 1217"/>
                    <path id="패스_1218" d="M257.6 180.3a41.043 41.043 0 0 0-3.6-2.9c-.2-.1-.8-.7-.7-.4 4.2 7.2-19 37.5-69.5 31.3-11.6-1.4-27.8-13.6-47.5 1.8-8.4 6.6-20 11.9-30.6 12.1-26.7.5-94.9-14.7-74.3-32.4C40 182.4 71 175.7 99 170.3v-.3a4.648 4.648 0 0 1-2.1.5 4.7 4.7 0 0 1-2.6-.8c-7.5 1.5-16.1 3.2-26 5.1-57.9 11.5-52.3 24.6-46.9 30.1 12.2 12.3 40.5 24.7 84.8 27.2 9.5.5 25.1-5.7 33-11.2 10.4-7.3 21.8-15.3 47.2-5.9a12.949 12.949 0 0 0 4.4 1.1c39.5 4.1 71.8-24.1 66.8-35.8z" class="cls-11" data-name="패스 1218"/>
                </g>
                <g id="그룹_422" data-name="그룹 422">
                    <path id="패스_1219" d="M240.2 210.1h5.3v-1.3c0-.5-5.3-.5-5.3 0z" class="cls-13" data-name="패스 1219"/>
                    <ellipse id="타원_342" cx="7.8" cy="2.1" class="cls-5" data-name="타원 342" rx="7.8" ry="2.1" transform="translate(236 209.9)"/>
                    <path id="패스_1220" d="M245.1 211c0 1-1 1.5-2.3 1.5s-2.3-.5-2.3-1.5a2.074 2.074 0 0 1 2.3-1.8 2.139 2.139 0 0 1 2.3 1.8z" class="cls-14" data-name="패스 1220"/>
                    <path id="사각형_92" d="M0 0h4.6v7.7H0z" class="cls-14" data-name="사각형 92" transform="translate(240.5 203.3)"/>
                    <path id="사각형_93" d="M0 0h13.5v14.2H0z" class="cls-15" data-name="사각형 93" transform="translate(236 187.5)"/>
                    <ellipse id="타원_343" cx="2.3" cy="1.6" class="cls-13" data-name="타원 343" rx="2.3" ry="1.6" transform="translate(240.5 203.1)"/>
                    <path id="패스_1221" d="M249.5 201.7c0 1.2-3 3.4-6.8 3.4-3.7 0-6.8-2.3-6.8-3.4s3-2.1 6.8-2.1 6.8.9 6.8 2.1z" class="cls-15" data-name="패스 1221"/>
                    <path id="패스_1222" d="M245.4 208.9c0 .7-1.4 1-2.6 1-1.3 0-2.6-.3-2.6-1v1.4c0 .7 1.4 1.3 2.6 1.3 1.3 0 2.6-.6 2.6-1.3z" class="cls-13" data-name="패스 1222"/>
                    <path id="패스_1223" d="M236 187.5s-.8 5.3 13.5 5.3v-5.3z" class="cls-16" data-name="패스 1223"/>
                    <ellipse id="타원_344" cx="6.8" cy="2.1" class="cls-17" data-name="타원 344" rx="6.8" ry="2.1" transform="translate(236 185.4)"/>
                </g>
                <g id="그룹_423" data-name="그룹 423">
                    <path id="패스_1224" d="M17.4 179.3h5.3V178c0-.5-5.3-.5-5.3 0v1.3z" class="cls-13" data-name="패스 1224"/>
                    <ellipse id="타원_345" cx="7.8" cy="2.1" class="cls-5" data-name="타원 345" rx="7.8" ry="2.1" transform="translate(13.3 179.1)"/>
                    <path id="패스_1225" d="M22.3 180.2c0 1-1 1.5-2.3 1.5s-2.3-.5-2.3-1.5a2.074 2.074 0 0 1 2.3-1.8 2.074 2.074 0 0 1 2.3 1.8z" class="cls-14" data-name="패스 1225"/>
                    <path id="사각형_94" d="M0 0h4.6v7.7H0z" class="cls-14" data-name="사각형 94" transform="translate(17.8 172.5)"/>
                    <path id="사각형_95" d="M0 0h13.5v14.2H0z" class="cls-15" data-name="사각형 95" transform="translate(13.3 156.7)"/>
                    <ellipse id="타원_346" cx="2.3" cy="1.6" class="cls-13" data-name="타원 346" rx="2.3" ry="1.6" transform="translate(17.7 172.3)"/>
                    <path id="패스_1226" d="M26.8 170.8c0 1.2-3 3.4-6.8 3.4s-6.8-2.3-6.8-3.4 3-2.1 6.8-2.1 6.8 1 6.8 2.1z" class="cls-15" data-name="패스 1226"/>
                    <path id="패스_1227" d="M22.7 178c0 .7-1.4 1-2.6 1s-2.6-.3-2.6-1v1.4c0 .7 1.4 1.3 2.6 1.3s2.6-.6 2.6-1.3z" class="cls-13" data-name="패스 1227"/>
                    <path id="패스_1228" d="M13.3 156.7s-.8 5.3 13.5 5.3v-5.3z" class="cls-16" data-name="패스 1228"/>
                    <ellipse id="타원_347" cx="6.8" cy="2.1" class="cls-17" data-name="타원 347" rx="6.8" ry="2.1" transform="translate(13.2 154.6)"/>
                </g>
                <g id="그룹_439" data-name="그룹 439">
                    <g id="그룹_428" data-name="그룹 428">
                        <ellipse id="타원_348" cx="4.2" cy="1.2" class="cls-5" data-name="타원 348" rx="4.2" ry="1.2" transform="translate(29.2 171.4)"/>
                        <ellipse id="타원_349" cx="3.7" cy="1" class="cls-5" data-name="타원 349" rx="3.7" ry="1" transform="translate(39.2 174.7)"/>
                        <ellipse id="타원_350" cx="3.7" cy="1" class="cls-5" data-name="타원 350" rx="3.7" ry="1" transform="translate(46.6 169)"/>
                        <path id="패스_1229" d="M34.1 172.7a1.95 1.95 0 0 1-1.5 0V166h1.5z" class="cls-14" data-name="패스 1229"/>
                        <path id="패스_1230" d="M32.6 170.7a1.95 1.95 0 0 0 1.5 0V166h-1.5z" class="cls-13" data-name="패스 1230"/>
                        <g id="그룹_427" data-name="그룹 427">
                            <g id="그룹_424" data-name="그룹 424">
                                <path id="패스_1231" d="M39.2 168.3l-5.9-12.8 3.6 14a4.179 4.179 0 0 0 2.3-1.2z" class="cls-18" data-name="패스 1231"/>
                                <path id="패스_1232" d="M27.4 168.3c.4.7 1.8 1.3 3.5 1.5l2.4-14.3z" class="cls-17" data-name="패스 1232"/>
                                <path id="패스_1233" d="M36.9 169.5l-3.6-14-2.4 14.3a15.016 15.016 0 0 0 6-.3z" class="cls-15" data-name="패스 1233"/>
                                <path id="패스_1234" d="M36.9 163.2l-7.3.3-.7 1.5c.8.9 2.9 1.6 5.3 1.5a8.294 8.294 0 0 0 3.7-1z" class="cls-16" data-name="패스 1234"/>
                            </g>
                            <g id="그룹_425" data-name="그룹 425">
                                <path id="패스_1235" d="M38.7 163.8l-5.4-11.6 3.3 12.7a3.824 3.824 0 0 0 2.1-1.1z" class="cls-18" data-name="패스 1235"/>
                                <path id="패스_1236" d="M28 163.8c.4.7 1.6 1.2 3.2 1.4l2.2-13z" class="cls-17" data-name="패스 1236"/>
                                <path id="패스_1237" d="M36.6 164.9l-3.3-12.7-2.2 13a14.373 14.373 0 0 0 5.5-.3z" class="cls-15" data-name="패스 1237"/>
                            </g>
                            <path id="패스_1238" d="M33.3 152.2l-2.9 6.3c.4.4 1.6 1.3 4.6 1.2a2.544 2.544 0 0 0 1.6-.5z" class="cls-16" data-name="패스 1238"/>
                            <g id="그룹_426" data-name="그룹 426">
                                <path id="패스_1239" d="M37.6 157.4l-4.3-9.3 2.6 10.2a3.027 3.027 0 0 0 1.7-.9z" class="cls-18" data-name="패스 1239"/>
                                <path id="패스_1240" d="M29 157.4a3.886 3.886 0 0 0 2.5 1.1l1.7-10.4z" class="cls-17" data-name="패스 1240"/>
                                <path id="패스_1241" d="M35.9 158.3l-2.6-10.2-1.7 10.4a10.254 10.254 0 0 0 4.3-.2z" class="cls-15" data-name="패스 1241"/>
                            </g>
                        </g>
                    </g>
                    <g id="그룹_433" data-name="그룹 433">
                        <path id="패스_1242" d="M50.5 170.2a2.054 2.054 0 0 1-1.1 0v-5h1.1z" class="cls-14" data-name="패스 1242"/>
                        <path id="패스_1243" d="M49.4 168.8a2.054 2.054 0 0 0 1.1 0v-3.5h-1.1z" class="cls-13" data-name="패스 1243"/>
                        <g id="그룹_432" data-name="그룹 432">
                            <g id="그룹_429" data-name="그룹 429">
                                <path id="패스_1244" d="M54.3 167l-4.4-9.5 2.7 10.4a3.424 3.424 0 0 0 1.7-.9z" class="cls-18" data-name="패스 1244"/>
                                <path id="패스_1245" d="M45.5 167c.3.6 1.3.9 2.6 1.1l1.8-10.6z" class="cls-17" data-name="패스 1245"/>
                                <path id="패스_1246" d="M52.6 167.9l-2.7-10.4-1.8 10.6a11.224 11.224 0 0 0 4.5-.2z" class="cls-15" data-name="패스 1246"/>
                                <path id="패스_1247" d="M52.6 163.2l-5.4.2-.5 1.1a5.062 5.062 0 0 0 3.9 1.1 7.239 7.239 0 0 0 2.8-.8z" class="cls-16" data-name="패스 1247"/>
                            </g>
                            <g id="그룹_430" data-name="그룹 430">
                                <path id="패스_1248" d="M53.9 163.6l-4-8.6 2.4 9.5a3.072 3.072 0 0 0 1.6-.9z" class="cls-18" data-name="패스 1248"/>
                                <path id="패스_1249" d="M45.9 163.6a3.174 3.174 0 0 0 2.4 1l1.6-9.6z" class="cls-17" data-name="패스 1249"/>
                                <path id="패스_1250" d="M52.3 164.5l-2.4-9.5-1.6 9.6a8.927 8.927 0 0 0 4-.1z" class="cls-15" data-name="패스 1250"/>
                            </g>
                            <path id="패스_1251" d="M49.9 155l-2.2 4.7c.3.3 1.2 1 3.4.9a2.133 2.133 0 0 0 1.2-.3z" class="cls-16" data-name="패스 1251"/>
                            <g id="그룹_431" data-name="그룹 431">
                                <path id="패스_1252" d="M53.1 158.9l-3.2-6.9 1.9 7.6a2.609 2.609 0 0 0 1.3-.7z" class="cls-18" data-name="패스 1252"/>
                                <path id="패스_1253" d="M46.7 158.9c.2.4 1 .7 1.9.8l1.3-7.7z" class="cls-17" data-name="패스 1253"/>
                                <path id="패스_1254" d="M51.9 159.6L50 152l-1.3 7.7a11.451 11.451 0 0 0 3.2-.1z" class="cls-15" data-name="패스 1254"/>
                            </g>
                        </g>
                    </g>
                    <g id="그룹_438" data-name="그룹 438">
                        <path id="패스_1255" d="M43.3 175.6a2.054 2.054 0 0 1-1.1 0v-5h1.1z" class="cls-14" data-name="패스 1255"/>
                        <path id="패스_1256" d="M42.2 174.1a2.054 2.054 0 0 0 1.1 0v-3.5h-1.1z" class="cls-13" data-name="패스 1256"/>
                        <g id="그룹_437" data-name="그룹 437">
                            <g id="그룹_434" data-name="그룹 434">
                                <path id="패스_1257" d="M47.1 172.3l-4.4-9.5 2.7 10.4a2.533 2.533 0 0 0 1.7-.9z" class="cls-18" data-name="패스 1257"/>
                                <path id="패스_1258" d="M38.4 172.3c.3.6 1.3.9 2.6 1.1l1.8-10.6z" class="cls-17" data-name="패스 1258"/>
                                <path id="패스_1259" d="M45.4 173.3l-2.7-10.4-1.7 10.5a10.834 10.834 0 0 0 4.4-.1z" class="cls-15" data-name="패스 1259"/>
                                <path id="패스_1260" d="M45.4 168.6l-5.4.2-.5 1.1a5.062 5.062 0 0 0 3.9 1.1 7.239 7.239 0 0 0 2.8-.8z" class="cls-16" data-name="패스 1260"/>
                            </g>
                            <g id="그룹_435" data-name="그룹 435">
                                <path id="패스_1261" d="M46.7 169l-4-8.6 2.4 9.5a2.709 2.709 0 0 0 1.6-.9z" class="cls-18" data-name="패스 1261"/>
                                <path id="패스_1262" d="M38.8 169a3.174 3.174 0 0 0 2.4 1l1.6-9.6z" class="cls-17" data-name="패스 1262"/>
                                <path id="패스_1263" d="M45.2 169.8l-2.4-9.5-1.6 9.6a7.758 7.758 0 0 0 4-.1z" class="cls-15" data-name="패스 1263"/>
                            </g>
                            <path id="패스_1264" d="M42.7 160.4l-2.2 4.7c.3.3 1.2 1 3.4.9a2.133 2.133 0 0 0 1.2-.3z" class="cls-16" data-name="패스 1264"/>
                            <g id="그룹_436" data-name="그룹 436">
                                <path id="패스_1265" d="M45.9 164.2l-3.2-6.9 1.9 7.6a2.024 2.024 0 0 0 1.3-.7z" class="cls-18" data-name="패스 1265"/>
                                <path id="패스_1266" d="M39.6 164.2c.2.4 1 .7 1.9.8l1.3-7.7z" class="cls-17" data-name="패스 1266"/>
                                <path id="패스_1267" d="M44.7 164.9l-1.9-7.6-1.3 7.7a6.93 6.93 0 0 0 3.2-.1z" class="cls-15" data-name="패스 1267"/>
                            </g>
                        </g>
                    </g>
                </g>
                <g id="그룹_455" data-name="그룹 455">
                    <g id="그룹_444" data-name="그룹 444">
                        <ellipse id="타원_351" cx="4.2" cy="1.2" class="cls-5" data-name="타원 351" rx="4.2" ry="1.2" transform="translate(162.8 196.3)"/>
                        <ellipse id="타원_352" cx="3.7" cy="1" class="cls-5" data-name="타원 352" rx="3.7" ry="1" transform="translate(172.8 199.6)"/>
                        <ellipse id="타원_353" cx="3.7" cy="1" class="cls-5" data-name="타원 353" rx="3.7" ry="1" transform="translate(180.2 193.9)"/>
                        <path id="패스_1268" d="M167.7 197.6a1.95 1.95 0 0 1-1.5 0v-6.7h1.5z" class="cls-14" data-name="패스 1268"/>
                        <path id="패스_1269" d="M166.2 195.6a1.95 1.95 0 0 0 1.5 0v-4.7h-1.5z" class="cls-13" data-name="패스 1269"/>
                        <g id="그룹_443" data-name="그룹 443">
                            <g id="그룹_440" data-name="그룹 440">
                                <path id="패스_1270" d="M172.8 193.2l-5.9-12.8 3.6 14a3.634 3.634 0 0 0 2.3-1.2z" class="cls-18" data-name="패스 1270"/>
                                <path id="패스_1271" d="M161 193.2c.4.7 1.8 1.3 3.5 1.5l2.4-14.3z" class="cls-17" data-name="패스 1271"/>
                                <path id="패스_1272" d="M170.5 194.5l-3.6-14-2.4 14.3a19.852 19.852 0 0 0 6-.3z" class="cls-15" data-name="패스 1272"/>
                                <path id="패스_1273" d="M170.5 188.1l-7.3.3-.7 1.5c.8.9 2.9 1.6 5.3 1.5a8.294 8.294 0 0 0 3.7-1z" class="cls-16" data-name="패스 1273"/>
                            </g>
                            <g id="그룹_441" data-name="그룹 441">
                                <path id="패스_1274" d="M172.3 188.7l-5.4-11.6 3.3 12.7a3.824 3.824 0 0 0 2.1-1.1z" class="cls-18" data-name="패스 1274"/>
                                <path id="패스_1275" d="M161.6 188.7c.4.7 1.6 1.2 3.2 1.4l2.2-13z" class="cls-17" data-name="패스 1275"/>
                                <path id="패스_1276" d="M170.2 189.9l-3.3-12.7-2.2 13a16.685 16.685 0 0 0 5.5-.3z" class="cls-15" data-name="패스 1276"/>
                            </g>
                            <path id="패스_1277" d="M166.9 177.1l-2.9 6.3c.4.4 1.6 1.3 4.6 1.2a2.545 2.545 0 0 0 1.6-.5z" class="cls-16" data-name="패스 1277"/>
                            <g id="그룹_442" data-name="그룹 442">
                                <path id="패스_1278" d="M171.2 182.3l-4.3-9.3 2.6 10.2a3.027 3.027 0 0 0 1.7-.9z" class="cls-18" data-name="패스 1278"/>
                                <path id="패스_1279" d="M162.6 182.3a3.886 3.886 0 0 0 2.5 1.1l1.7-10.4z" class="cls-17" data-name="패스 1279"/>
                                <path id="패스_1280" d="M169.5 183.2l-2.6-10.2-1.7 10.4a10.253 10.253 0 0 0 4.3-.2z" class="cls-15" data-name="패스 1280"/>
                            </g>
                        </g>
                    </g>
                    <g id="그룹_449" data-name="그룹 449">
                        <path id="패스_1281" d="M184.1 195.1a2.054 2.054 0 0 1-1.1 0v-5h1.1z" class="cls-14" data-name="패스 1281"/>
                        <path id="패스_1282" d="M183 193.7a2.054 2.054 0 0 0 1.1 0v-3.5H183z" class="cls-13" data-name="패스 1282"/>
                        <g id="그룹_448" data-name="그룹 448">
                            <g id="그룹_445" data-name="그룹 445">
                                <path id="패스_1283" d="M187.9 191.9l-4.4-9.5 2.7 10.4a3.424 3.424 0 0 0 1.7-.9z" class="cls-18" data-name="패스 1283"/>
                                <path id="패스_1284" d="M179.1 191.9c.3.6 1.3.9 2.6 1.1l1.8-10.6z" class="cls-17" data-name="패스 1284"/>
                                <path id="패스_1285" d="M186.2 192.8l-2.7-10.4-1.8 10.6a11.224 11.224 0 0 0 4.5-.2z" class="cls-15" data-name="패스 1285"/>
                                <path id="패스_1286" d="M186.2 188.1l-5.4.2-.5 1.1a5.062 5.062 0 0 0 3.9 1.1 7.239 7.239 0 0 0 2.8-.8z" class="cls-16" data-name="패스 1286"/>
                            </g>
                            <g id="그룹_446" data-name="그룹 446">
                                <path id="패스_1287" d="M187.5 188.5l-4-8.6 2.4 9.5a3.072 3.072 0 0 0 1.6-.9z" class="cls-18" data-name="패스 1287"/>
                                <path id="패스_1288" d="M179.5 188.5a3.174 3.174 0 0 0 2.4 1l1.6-9.6z" class="cls-17" data-name="패스 1288"/>
                                <path id="패스_1289" d="M185.9 189.4l-2.4-9.5-1.6 9.6a8.927 8.927 0 0 0 4-.1z" class="cls-15" data-name="패스 1289"/>
                            </g>
                            <path id="패스_1290" d="M183.5 179.9l-2.2 4.7c.3.3 1.2 1 3.4.9a2.133 2.133 0 0 0 1.2-.3z" class="cls-16" data-name="패스 1290"/>
                            <g id="그룹_447" data-name="그룹 447">
                                <path id="패스_1291" d="M186.7 183.8l-3.2-6.9 1.9 7.6a2.609 2.609 0 0 0 1.3-.7z" class="cls-18" data-name="패스 1291"/>
                                <path id="패스_1292" d="M180.3 183.8c.2.4 1 .7 1.9.8l1.3-7.7z" class="cls-17" data-name="패스 1292"/>
                                <path id="패스_1293" d="M185.5 184.5l-1.9-7.6-1.3 7.7a8.621 8.621 0 0 0 3.2-.1z" class="cls-15" data-name="패스 1293"/>
                            </g>
                        </g>
                    </g>
                    <g id="그룹_454" data-name="그룹 454">
                        <path id="패스_1294" d="M176.9 200.5a2.054 2.054 0 0 1-1.1 0v-5h1.1z" class="cls-14" data-name="패스 1294"/>
                        <path id="패스_1295" d="M175.8 199a2.054 2.054 0 0 0 1.1 0v-3.5h-1.1z" class="cls-13" data-name="패스 1295"/>
                        <g id="그룹_453" data-name="그룹 453">
                            <g id="그룹_450" data-name="그룹 450">
                                <path id="패스_1296" d="M180.7 197.2l-4.4-9.5 2.7 10.4a2.191 2.191 0 0 0 1.7-.9z" class="cls-18" data-name="패스 1296"/>
                                <path id="패스_1297" d="M172 197.2c.3.6 1.3.9 2.6 1.1l1.8-10.6z" class="cls-17" data-name="패스 1297"/>
                                <path id="패스_1298" d="M179 198.2l-2.7-10.4-1.8 10.6a13.387 13.387 0 0 0 4.5-.2z" class="cls-15" data-name="패스 1298"/>
                                <path id="패스_1299" d="M179 193.5l-5.4.2-.5 1.1a5.062 5.062 0 0 0 3.9 1.1 7.239 7.239 0 0 0 2.8-.8z" class="cls-16" data-name="패스 1299"/>
                            </g>
                            <g id="그룹_451" data-name="그룹 451">
                                <path id="패스_1300" d="M180.3 193.9l-4-8.6 2.4 9.5a2.709 2.709 0 0 0 1.6-.9z" class="cls-18" data-name="패스 1300"/>
                                <path id="패스_1301" d="M172.4 193.9a3.174 3.174 0 0 0 2.4 1l1.6-9.6z" class="cls-17" data-name="패스 1301"/>
                                <path id="패스_1302" d="M178.8 194.8l-2.4-9.5-1.6 9.6a10.77 10.77 0 0 0 4-.1z" class="cls-15" data-name="패스 1302"/>
                            </g>
                            <path id="패스_1303" d="M176.3 185.3l-2.2 4.7c.3.3 1.2 1 3.4.9a2.133 2.133 0 0 0 1.2-.3z" class="cls-16" data-name="패스 1303"/>
                            <g id="그룹_452" data-name="그룹 452">
                                <path id="패스_1304" d="M179.5 189.1l-3.2-6.9 1.9 7.6a2.024 2.024 0 0 0 1.3-.7z" class="cls-18" data-name="패스 1304"/>
                                <path id="패스_1305" d="M173.2 189.1c.2.4 1 .7 1.9.8l1.3-7.7z" class="cls-17" data-name="패스 1305"/>
                                <path id="패스_1306" d="M178.3 189.8l-1.9-7.6-1.4 7.8a9.062 9.062 0 0 0 3.3-.2z" class="cls-15" data-name="패스 1306"/>
                            </g>
                        </g>
                    </g>
                </g>
                <g id="그룹_456" data-name="그룹 456">
                    <path id="패스_1307" d="M80.9 121.7a5.834 5.834 0 0 0-5.2-3.2 5.135 5.135 0 0 0-2.5.6c-1-1.3-3.5-2.1-5.3-2.1a6.4 6.4 0 0 0-6 5c-1.9.5-2.5 2.2-2.5 4.3 0 2.5 2.5 4.2 4.9 4.2h16.2a4.41 4.41 0 0 0 .4-8.8z" class="cls-19" data-name="패스 1307"/>
                    <path id="패스_1308" d="M77.3 122.9a4.627 4.627 0 0 0-4.2-2.8 4.032 4.032 0 0 0-2.2.6 4.945 4.945 0 0 0-3.8-1.8 4.851 4.851 0 0 0-4.8 4.1 3.759 3.759 0 0 0-2.9 3.7 3.9 3.9 0 0 0 3.9 3.9H77a3.9 3.9 0 0 0 3.9-3.9 3.98 3.98 0 0 0-3.6-3.8z" class="cls-20" data-name="패스 1308"/>
                    <path id="패스_1309" d="M55.3 110.7a5.834 5.834 0 0 0-5.2-3.2 5.135 5.135 0 0 0-2.5.6c-1-1.3-3.5-2.1-5.3-2.1a6.4 6.4 0 0 0-6 5c-1.9.5-2.5 2.2-2.5 4.3 0 2.5 2.5 4.2 4.9 4.2h16.2a4.375 4.375 0 0 0 4.4-4.4 4.294 4.294 0 0 0-4-4.4z" class="cls-19" data-name="패스 1309"/>
                    <path id="패스_1310" d="M51.8 111.8a4.627 4.627 0 0 0-4.2-2.8 4.032 4.032 0 0 0-2.2.6 4.945 4.945 0 0 0-3.8-1.8 4.851 4.851 0 0 0-4.8 4.1 3.759 3.759 0 0 0-2.9 3.7 3.9 3.9 0 0 0 3.9 3.9h13.7a3.9 3.9 0 0 0 3.9-3.9 4.153 4.153 0 0 0-3.6-3.8z" class="cls-20" data-name="패스 1310"/>
                    <path id="패스_1311" d="M97.1 107.6a5.834 5.834 0 0 0-5.2-3.2 5.135 5.135 0 0 0-2.5.6c-1-1.3-3.5-2.1-5.3-2.1a6.4 6.4 0 0 0-6 5c-1.9.5-2.5 2.2-2.5 4.3 0 2.5 2.5 4.2 4.9 4.2h16.2a4.375 4.375 0 0 0 4.4-4.4 4.43 4.43 0 0 0-4-4.4z" class="cls-19" data-name="패스 1311"/>
                    <path id="패스_1312" d="M93.6 108.8a4.627 4.627 0 0 0-4.2-2.8 4.032 4.032 0 0 0-2.2.6 4.945 4.945 0 0 0-3.8-1.8 4.851 4.851 0 0 0-4.8 4.1 3.759 3.759 0 0 0-2.9 3.7 3.9 3.9 0 0 0 3.9 3.9h13.7a3.9 3.9 0 0 0 3.9-3.9 4.066 4.066 0 0 0-3.6-3.8z" class="cls-20" data-name="패스 1312"/>
                </g>
                <g id="그룹_457" data-name="그룹 457">
                    <path id="패스_1313" d="M244.2 122.2a5.834 5.834 0 0 0-5.2-3.2 5.135 5.135 0 0 0-2.5.6c-1-1.3-3.5-2.1-5.3-2.1a6.4 6.4 0 0 0-6 5c-1.9.5-2.5 2.2-2.5 4.3 0 2.5 2.5 4.2 4.9 4.2h16.2a4.375 4.375 0 0 0 4.4-4.4 4.446 4.446 0 0 0-4-4.4z" class="cls-19" data-name="패스 1313"/>
                    <path id="패스_1314" d="M240.6 123.3a4.627 4.627 0 0 0-4.2-2.8 4.032 4.032 0 0 0-2.2.6 4.945 4.945 0 0 0-3.8-1.8 4.851 4.851 0 0 0-4.8 4.1 3.759 3.759 0 0 0-2.9 3.7 3.9 3.9 0 0 0 3.9 3.9h13.7a3.9 3.9 0 0 0 3.9-3.9 4.061 4.061 0 0 0-3.6-3.8z" class="cls-20" data-name="패스 1314"/>
                    <path id="패스_1315" d="M218.6 111.1a5.834 5.834 0 0 0-5.2-3.2 5.135 5.135 0 0 0-2.5.6c-1-1.3-3.5-2.1-5.3-2.1a6.4 6.4 0 0 0-6 5c-1.9.5-2.5 2.2-2.5 4.3 0 2.5 2.5 4.2 4.9 4.2h16.2a4.41 4.41 0 0 0 .4-8.8z" class="cls-19" data-name="패스 1315"/>
                    <path id="패스_1316" d="M215 112.3a4.627 4.627 0 0 0-4.2-2.8 4.032 4.032 0 0 0-2.2.6 4.945 4.945 0 0 0-3.8-1.8 4.851 4.851 0 0 0-4.8 4.1 3.759 3.759 0 0 0-2.9 3.7 3.9 3.9 0 0 0 3.9 3.9h13.7a3.854 3.854 0 0 0 .3-7.7z" class="cls-20" data-name="패스 1316"/>
                </g>
                <path id="패스_1317" d="M157.1 176.7s49.6-9.4 76.9-7.5c0 0-1.9-8.2-22.3-12.2-20-3.8-38.5 2.1-54.6 19.7z" class="cls-4" data-name="패스 1317"/>
                <g id="그룹_459" data-name="그룹 459">
                    <g id="그룹_458" data-name="그룹 458">
                        <path id="패스_1318" d="M202.8 147.5l-.4 24.7a3.3 3.3 0 0 0 1.4 0l-.4-24.7z" class="cls-21" data-name="패스 1318"/>
                        <path id="패스_1319" d="M204.1 147.5h-.8l.4 24.7c.2 0 .3-.1.5-.2a1.333 1.333 0 0 0 .5-.6z" class="cls-22" data-name="패스 1319"/>
                        <path id="패스_1320" d="M202 147.5l-.5 23.9c0 .2.2.4.5.6.1.1.3.1.5.2l.4-24.7z" class="cls-22" data-name="패스 1320"/>
                        <ellipse id="타원_354" cx="1.1" cy=".4" class="cls-21" data-name="타원 354" rx="1.1" ry=".4" transform="translate(202 147.1)"/>
                        <ellipse id="타원_355" cx="1.1" cy=".4" class="cls-22" data-name="타원 355" rx="1.1" ry=".4" transform="rotate(-4.7 1891.633 -2385.28)"/>
                        <ellipse id="타원_356" cx="1.1" cy=".4" class="cls-21" data-name="타원 356" rx="1.1" ry=".4" transform="rotate(-11.168 853.405 -959.207)"/>
                        <ellipse id="타원_357" cx="1.1" cy=".4" class="cls-22" data-name="타원 357" rx="1.1" ry=".4" transform="rotate(-14.407 682.79 -724.888)"/>
                        <ellipse id="타원_358" cx="1.1" cy=".4" class="cls-21" data-name="타원 358" rx="1.1" ry=".4" transform="rotate(-19.439 530.263 -515.653)"/>
                        <ellipse id="타원_359" cx="1.1" cy=".4" class="cls-22" data-name="타원 359" rx="1.1" ry=".4" transform="rotate(-19.439 529.605 -515.39)"/>
                        <ellipse id="타원_360" cx="1.1" cy=".4" class="cls-21" data-name="타원 360" rx="1.1" ry=".4" transform="rotate(-24.789 435.04 -385.075)"/>
                        <ellipse id="타원_361" cx="1.1" cy=".4" class="cls-22" data-name="타원 361" rx="1.1" ry=".4" transform="rotate(-34.946 334.247 -246.656)"/>
                        <ellipse id="타원_362" cx="1.1" cy=".4" class="cls-21" data-name="타원 362" rx="1.1" ry=".4" transform="rotate(-40.83 298.143 -197.025)"/>
                        <ellipse id="타원_363" cx="1.1" cy=".4" class="cls-22" data-name="타원 363" rx="1.1" ry=".4" transform="rotate(-48.868 262.621 -148.076)"/>
                        <ellipse id="타원_364" cx="1.1" cy=".4" class="cls-21" data-name="타원 364" rx="1.1" ry=".4" transform="rotate(-55.75 239.625 -116.628)"/>
                        <ellipse id="타원_365" cx="1.1" cy=".4" class="cls-22" data-name="타원 365" rx="1.1" ry=".4" transform="rotate(-63.666 219.127 -88.428)"/>
                        <ellipse id="타원_366" cx="1.1" cy=".4" class="cls-21" data-name="타원 366" rx="1.1" ry=".4" transform="rotate(-75.88 195.107 -55.379)"/>
                        <ellipse id="타원_367" cx="1.1" cy=".4" class="cls-22" data-name="타원 367" rx="1.1" ry=".4" transform="rotate(-85.334 180.587 -35.401)"/>
                    </g>
                    <path id="패스_1321" d="M199 145.3c0-1 .7-1.5 1.6-.9a3.56 3.56 0 0 1 1.6 2.8c0 1-.7 1.5-1.6.9a3.677 3.677 0 0 1-1.6-2.8z" class="cls-22" data-name="패스 1321"/>
                    <path id="패스_1322" d="M200.8 147.9l1.1-1.6 8.8 11.8-.5.7z" class="cls-21" data-name="패스 1322"/>
                    <path id="패스_1323" d="M201.8 146.1l-2.2-1.3.6-11.9 1 .6z" class="cls-21" data-name="패스 1323"/>
                    <path id="패스_1324" d="M200.6 147.8l-1.1-2.9-8.9 1.6.5 1.3z" class="cls-21" data-name="패스 1324"/>
                    <path id="패스_1325" d="M199.9 147.4a2.818 2.818 0 0 1-.6-2.9c.4-.6 1.4-.4 2.2.6a2.818 2.818 0 0 1 .6 2.9c-.4.6-1.5.4-2.2-.6z" class="cls-21" data-name="패스 1325"/>
                    <path id="패스_1326" d="M200.4 148.1l1.2-1.6 9.1 11.6-.5.7z" class="cls-20" data-name="패스 1326"/>
                    <path id="패스_1327" d="M201.5 146.3l-2.3-1.3 1-12.1 1 .6z" class="cls-20" data-name="패스 1327"/>
                    <path id="패스_1328" d="M200.3 148l-1.1-2.9-8.6 1.4.5 1.3z" class="cls-20" data-name="패스 1328"/>
                    <path id="패스_1329" d="M199.6 147.6a2.818 2.818 0 0 1-.6-2.9c.4-.6 1.4-.4 2.2.6a2.818 2.818 0 0 1 .6 2.9c-.4.6-1.5.4-2.2-.6z" class="cls-21" data-name="패스 1329"/>
                    <path id="패스_1330" d="M198.9 144.7l2.3 3.9.3-.1-2.3-4z" class="cls-21" data-name="패스 1330"/>
                    <path id="패스_1331" d="M199.2 147.8a2.818 2.818 0 0 1-.6-2.9c.4-.6 1.4-.4 2.2.6a2.818 2.818 0 0 1 .6 2.9c-.4.6-1.4.4-2.2-.6z" class="cls-22" data-name="패스 1331"/>
                    <path id="패스_1332" d="M199.6 147.3c-.4-.5-.6-1.3-.3-1.6.3-.4.8-.2 1.3.3.4.5.6 1.3.3 1.6-.3.4-.9.2-1.3-.3z" class="cls-20" data-name="패스 1332"/>
                    <path id="패스_1333" d="M199.1 146.5l.6 1.1.5.2-1-1.9z" class="cls-20" data-name="패스 1333"/>
                    <path id="패스_1334" d="M199.5 147.1c-.3-.4-.4-.9-.2-1.1s.5-.1.8.2c.3.4.4.8.2 1.1-.1.3-.5.2-.8-.2z" class="cls-21" data-name="패스 1334"/>
                    <path id="패스_1335" d="M199.3 147.3c-.3-.4-.4-.9-.2-1.1s.5-.1.8.2c.3.4.4.8.2 1.1-.1.3-.5.2-.8-.2z" class="cls-23" data-name="패스 1335"/>
                    <path id="패스_1336" d="M199.1 147.5c-.3-.4-.4-.9-.2-1.1s.5-.1.8.2c.3.4.4.8.2 1.1-.1.2-.5.1-.8-.2z" class="cls-21" data-name="패스 1336"/>
                    <path id="패스_1337" d="M199 147.7c-.3-.4-.4-.9-.2-1.1s.5-.1.8.2c.3.4.4.8.2 1.1a.554.554 0 0 1-.8-.2z" class="cls-23" data-name="패스 1337"/>
                </g>
                <g id="그룹_461" data-name="그룹 461">
                    <g id="그룹_460" data-name="그룹 460">
                        <path id="패스_1338" d="M215.5 136l-.4 24.7a3.3 3.3 0 0 0 1.4 0L216 136z" class="cls-21" data-name="패스 1338"/>
                        <path id="패스_1339" d="M216.8 136h-.8l.4 24.7c.2 0 .3-.1.5-.2a1.333 1.333 0 0 0 .5-.6z" class="cls-22" data-name="패스 1339"/>
                        <path id="패스_1340" d="M214.6 136l-.5 23.9c0 .2.2.4.5.6.1.1.3.1.5.2l.4-24.7z" class="cls-22" data-name="패스 1340"/>
                        <ellipse id="타원_368" cx="1.1" cy=".4" class="cls-21" data-name="타원 368" rx="1.1" ry=".4" transform="translate(214.6 135.6)"/>
                        <ellipse id="타원_369" cx="1.1" cy=".4" class="cls-22" data-name="타원 369" rx="1.1" ry=".4" transform="rotate(-4.7 1757.984 -2544.437)"/>
                        <ellipse id="타원_370" cx="1.1" cy=".4" class="cls-21" data-name="타원 370" rx="1.1" ry=".4" transform="rotate(-11.168 800.962 -1029.414)"/>
                        <ellipse id="타원_371" cx="1.1" cy=".4" class="cls-22" data-name="타원 371" rx="1.1" ry=".4" transform="rotate(-14.407 643.22 -780.844)"/>
                        <ellipse id="타원_372" cx="1.1" cy=".4" class="cls-21" data-name="타원 372" rx="1.1" ry=".4" transform="rotate(-19.439 503.01 -558.491)"/>
                        <ellipse id="타원_373" cx="1.1" cy=".4" class="cls-22" data-name="타원 373" rx="1.1" ry=".4" transform="rotate(-19.439 502.398 -557.938)"/>
                        <ellipse id="타원_374" cx="1.1" cy=".4" class="cls-21" data-name="타원 374" rx="1.1" ry=".4" transform="rotate(-24.789 415.189 -419.738)"/>
                        <ellipse id="타원_375" cx="1.1" cy=".4" class="cls-22" data-name="타원 375" rx="1.1" ry=".4" transform="rotate(-34.946 322.345 -272.436)"/>
                        <ellipse id="타원_376" cx="1.1" cy=".4" class="cls-21" data-name="타원 376" rx="1.1" ry=".4" transform="rotate(-40.83 289.009 -219.846)"/>
                        <ellipse id="타원_377" cx="1.1" cy=".4" class="cls-22" data-name="타원 377" rx="1.1" ry=".4" transform="rotate(-48.868 256.22 -167.66)"/>
                        <ellipse id="타원_378" cx="1.1" cy=".4" class="cls-21" data-name="타원 378" rx="1.1" ry=".4" transform="rotate(-55.75 234.978 -134.341)"/>
                        <ellipse id="타원_379" cx="1.1" cy=".4" class="cls-22" data-name="타원 379" rx="1.1" ry=".4" transform="rotate(-63.666 216.15 -104.293)"/>
                        <ellipse id="타원_380" cx="1.1" cy=".4" class="cls-21" data-name="타원 380" rx="1.1" ry=".4" transform="rotate(-75.88 193.98 -69.24)"/>
                        <ellipse id="타원_381" cx="1.1" cy=".4" class="cls-22" data-name="타원 381" rx="1.1" ry=".4" transform="rotate(-85.334 180.61 -48.008)"/>
                    </g>
                    <path id="패스_1341" d="M211.7 133.8c0-1 .7-1.5 1.6-.9a3.56 3.56 0 0 1 1.6 2.8c0 1-.7 1.5-1.6.9a3.56 3.56 0 0 1-1.6-2.8z" class="cls-22" data-name="패스 1341"/>
                    <path id="패스_1342" d="M213.4 136.4l1.2-1.6 8.8 11.8-.5.7z" class="cls-21" data-name="패스 1342"/>
                    <path id="패스_1343" d="M214.5 134.6l-2.3-1.3.6-11.9 1.1.6z" class="cls-21" data-name="패스 1343"/>
                    <path id="패스_1344" d="M213.3 136.3l-1.2-2.9-8.8 1.6.5 1.3z" class="cls-21" data-name="패스 1344"/>
                    <path id="패스_1345" d="M212.5 135.9a2.818 2.818 0 0 1-.6-2.9c.4-.6 1.4-.4 2.2.6a2.818 2.818 0 0 1 .6 2.9c-.4.6-1.4.4-2.2-.6z" class="cls-21" data-name="패스 1345"/>
                    <path id="패스_1346" d="M213.1 136.6l1.1-1.6 9.2 11.6-.5.7z" class="cls-20" data-name="패스 1346"/>
                    <path id="패스_1347" d="M214.1 134.7l-2.2-1.2.9-12.1 1.1.6z" class="cls-20" data-name="패스 1347"/>
                    <path id="패스_1348" d="M212.9 136.5l-1.1-2.9-8.5 1.4.5 1.3z" class="cls-20" data-name="패스 1348"/>
                    <path id="패스_1349" d="M212.2 136.1a2.818 2.818 0 0 1-.6-2.9c.4-.6 1.4-.4 2.2.6a2.818 2.818 0 0 1 .6 2.9c-.4.6-1.4.4-2.2-.6z" class="cls-21" data-name="패스 1349"/>
                    <path id="패스_1350" d="M211.6 133.2l2.3 3.9.3-.2-2.3-3.9z" class="cls-21" data-name="패스 1350"/>
                    <path id="패스_1351" d="M211.9 136.3a2.818 2.818 0 0 1-.6-2.9c.4-.6 1.4-.4 2.2.6a2.818 2.818 0 0 1 .6 2.9c-.4.6-1.4.3-2.2-.6z" class="cls-22" data-name="패스 1351"/>
                    <path id="패스_1352" d="M212.3 135.8c-.4-.5-.6-1.3-.3-1.6.3-.4.8-.2 1.3.3.4.5.6 1.3.3 1.6-.3.4-.9.2-1.3-.3z" class="cls-20" data-name="패스 1352"/>
                    <path id="패스_1353" d="M211.7 134.9l.7 1.2.5.2-1.1-1.9z" class="cls-20" data-name="패스 1353"/>
                    <path id="패스_1354" d="M212.2 135.6c-.3-.4-.4-.9-.2-1.1s.5-.1.8.2c.3.4.4.8.2 1.1-.1.2-.5.1-.8-.2z" class="cls-21" data-name="패스 1354"/>
                    <path id="패스_1355" d="M212 135.8c-.3-.4-.4-.9-.2-1.1s.5-.1.8.2c.3.4.4.8.2 1.1s-.5.2-.8-.2z" class="cls-23" data-name="패스 1355"/>
                    <path id="패스_1356" d="M211.8 136c-.3-.4-.4-.9-.2-1.1s.5-.1.8.2c.3.4.4.8.2 1.1-.1.2-.5.1-.8-.2z" class="cls-21" data-name="패스 1356"/>
                    <path id="패스_1357" d="M211.6 136.2c-.3-.4-.4-.9-.2-1.1s.5-.1.8.2c.3.4.4.8.2 1.1-.1.2-.5.1-.8-.2z" class="cls-23" data-name="패스 1357"/>
                </g>
                <g id="그룹_462" data-name="그룹 462">
                    <path id="패스_1358" d="M213.2 216h10.1v-2.5c0-.9-10.1-.9-10.1 0z" class="cls-13" data-name="패스 1358"/>
                    <ellipse id="타원_382" cx="15" cy="4" class="cls-5" data-name="타원 382" rx="15" ry="4" transform="translate(205.3 215.7)"/>
                    <path id="패스_1359" d="M222.6 217.8c0 1.9-2 2.8-4.4 2.8s-4.4-.9-4.4-2.8 2-3.5 4.4-3.5c2.5 0 4.4 1.5 4.4 3.5z" class="cls-14" data-name="패스 1359"/>
                    <path id="사각형_96" d="M0 0h8.7v14.8H0z" class="cls-14" data-name="사각형 96" transform="translate(213.9 203)"/>
                    <path id="사각형_97" d="M0 0h26v27.2H0z" class="cls-15" data-name="사각형 97" transform="translate(205.3 172.6)"/>
                    <ellipse id="타원_383" cx="4.4" cy="3" class="cls-13" data-name="타원 383" rx="4.4" ry="3" transform="translate(213.9 202.6)"/>
                    <path id="패스_1360" d="M231.3 199.8c0 2.2-5.8 6.6-13 6.6s-13-4.4-13-6.6 5.8-4 13-4 13 1.8 13 4z" class="cls-15" data-name="패스 1360"/>
                    <path id="패스_1361" d="M223.3 213.6c0 1.3-2.6 1.9-5 1.9s-5-.6-5-1.9v2.8c0 1.3 2.6 2.4 5 2.4s5-1.1 5-2.4z" class="cls-13" data-name="패스 1361"/>
                    <path id="패스_1362" d="M205.3 172.6s-1.5 10.7 26 10.7v-10.7z" class="cls-16" data-name="패스 1362"/>
                    <ellipse id="타원_384" cx="13" cy="4" class="cls-17" data-name="타원 384" rx="13" ry="4" transform="translate(205.3 168.6)"/>
                </g>
                <g id="그룹_465" data-name="그룹 465">
                    <path id="패스_1363" d="M151.6 86.3h14.1v-13a14.644 14.644 0 0 0-10.5 3.8 11.2 11.2 0 0 0-3.6 9.2z" class="cls-24" data-name="패스 1363"/>
                    <circle id="타원_385" cx="11.8" cy="11.8" r="11.8" class="cls-24" data-name="타원 385" transform="translate(153.4 73.3)"/>
                    <g id="그룹_464" data-name="그룹 464">
                        <g id="그룹_463" class="cls-25" data-name="그룹 463">
                            <path id="패스_1364" d="M182.1 81.5l-33.7 10.6 1.7-1.1 34.4-10.8zm2.1-2.3L149.8 90l-1.7 1.1 33.7-10.6zm-.3-1.1l-34.4 10.8-1.7 1.1 33.7-10.6zm-.3-1.1l-34.4 10.8-1.7 1.1 33.7-10.6zm-.3-1l-34.4 10.8-1.7 1.1 33.7-10.6zm-.4-1.1l-34.4 10.8-1.7 1.1 33.7-10.6zm-.3-1l-34.4 10.8-1.7 1.1 33.7-10.6zm-.3-1.1l-34.4 10.8-1.7 1.1 33.7-10.6zm-.3-1l-34.4 10.8-1.7 1.1L179.6 73zm-18.3 5l15-4.7 2.4-1.3-17.7 5.5m-.7-.4l15-4.7 2.4-1.3-17.7 5.6m-.4-.4l14.9-4.7 2.4-1.3-17.6 5.5m25.8 15.3L153 100.7l-1.7 1.1L185 91.2zm-.4-1.1l-34.4 10.8-1.7 1.1 33.7-10.6zm-.3-1l-34.4 10.8-1.7 1.1L184.4 89zm-.3-1.1l-34.4 10.8-1.7 1.1L184.1 88zm-.3-1.1l-34.4 10.8-1.7 1.1 33.7-10.6zm-.3-1l-34.4 10.8-1.7 1.1 33.7-10.6zm-.4-1.1l-34.4 10.8-1.7 1.1 33.7-10.6zm-.3-1l-34.4 10.8-1.7 1.1 33.7-10.6zm-.3-1.1l-34.4 10.8-1.7 1.1 33.7-10.6z" class="cls-26" data-name="패스 1364"/>
                        </g>
                    </g>
                    <circle id="타원_386" cx="12.4" cy="12.4" r="12.4" class="cls-27" data-name="타원 386" transform="translate(151 73.3)"/>
                </g>
                <g id="그룹_494" data-name="그룹 494">
                    <g id="그룹_466" data-name="그룹 466">
                        <path id="패스_1366" d="M133.6 167.3h-7.5v-25.7a7.451 7.451 0 0 1 7.5 0z" class="cls-28" data-name="패스 1366"/>
                        <path id="패스_1367" d="M127.3 167.3h2.9v-26.7a7.4 7.4 0 0 0-2.9.5v26.2z" class="cls-29" data-name="패스 1367"/>
                        <path id="패스_1368" d="M127.9 167.3h1.1v-26.7a4.253 4.253 0 0 0-1.1.2z" class="cls-30" data-name="패스 1368"/>
                    </g>
                    <g id="그룹_467" data-name="그룹 467">
                        <path id="패스_1369" d="M98.3 172.1l-4.8-.6v-11.6l4.8-.3z" class="cls-7" data-name="패스 1369"/>
                        <path id="패스_1370" d="M98.3 172.1l5.2-.6v-11.6l-5.2-.3z" class="cls-8" data-name="패스 1370"/>
                    </g>
                    <g id="그룹_468" data-name="그룹 468">
                        <path id="패스_1371" d="M133.5 172.1l-5.8-.6V160l5.8-.4z" class="cls-30" data-name="패스 1371"/>
                        <path id="패스_1372" d="M133.5 172.1l6.2-.6V160l-6.2-.4z" class="cls-29" data-name="패스 1372"/>
                    </g>
                    <g id="그룹_484" data-name="그룹 484">
                        <path id="패스_1373" d="M128.4 175.6v-23.9l-7.8-.7v25.6z" class="cls-31" data-name="패스 1373"/>
                        <path id="패스_1374" d="M113.3 175.6v-23.9l7.3-.7v25.6z" class="cls-32" data-name="패스 1374"/>
                        <g id="그룹_483" data-name="그룹 483">
                            <g id="그룹_475" data-name="그룹 475">
                                <g id="그룹_469" data-name="그룹 469">
                                    <path id="패스_1375" d="M113.3 154.9v-3.2l7.3-.7v3.3z" class="cls-33" data-name="패스 1375"/>
                                </g>
                                <g id="그룹_470" data-name="그룹 470">
                                    <path id="패스_1376" d="M113.3 159.1v-3l7.3-.6v3.3z" class="cls-33" data-name="패스 1376"/>
                                </g>
                                <g id="그룹_471" data-name="그룹 471">
                                    <path id="패스_1377" d="M120.6 163.2h-7.3v-3l7.3-.3z" class="cls-33" data-name="패스 1377"/>
                                </g>
                                <g id="그룹_472" data-name="그룹 472">
                                    <path id="패스_1378" d="M120.6 167.7l-7.3-.4v-2.9h7.3z" class="cls-33" data-name="패스 1378"/>
                                </g>
                                <g id="그룹_473" data-name="그룹 473">
                                    <path id="패스_1379" d="M120.6 172.1l-7.3-.6v-3l7.3.4z" class="cls-33" data-name="패스 1379"/>
                                </g>
                                <g id="그룹_474" data-name="그룹 474">
                                    <path id="패스_1380" d="M120.6 176.6l-7.3-1v-3l7.3.7z" class="cls-33" data-name="패스 1380"/>
                                </g>
                            </g>
                            <g id="그룹_482" data-name="그룹 482">
                                <g id="그룹_476" data-name="그룹 476">
                                    <path id="패스_1381" d="M128.4 154.9l-7.8-.6V151l7.8.7z" class="cls-34" data-name="패스 1381"/>
                                </g>
                                <g id="그룹_477" data-name="그룹 477">
                                    <path id="패스_1382" d="M128.4 159.1l-7.8-.3v-3.3l7.8.6z" class="cls-34" data-name="패스 1382"/>
                                </g>
                                <g id="그룹_478" data-name="그룹 478">
                                    <path id="패스_1383" d="M120.6 163.2v-3.3l7.8.3v3z" class="cls-34" data-name="패스 1383"/>
                                </g>
                                <g id="그룹_479" data-name="그룹 479">
                                    <path id="패스_1384" d="M120.6 167.7v-3.3h7.8v2.9z" class="cls-34" data-name="패스 1384"/>
                                </g>
                                <g id="그룹_480" data-name="그룹 480">
                                    <path id="패스_1385" d="M120.6 172.1v-3.2l7.8-.4v3z" class="cls-34" data-name="패스 1385"/>
                                </g>
                                <g id="그룹_481" data-name="그룹 481">
                                    <path id="패스_1386" d="M120.6 176.6v-3.3l7.8-.7v3z" class="cls-34" data-name="패스 1386"/>
                                </g>
                            </g>
                        </g>
                    </g>
                    <g id="그룹_493" data-name="그룹 493">
                        <g id="그룹_488" data-name="그룹 488">
                            <g id="그룹_485" data-name="그룹 485">
                                <path id="패스_1387" d="M102.7 139.3v1.6l4.1-.5v-1.6z" class="cls-29" data-name="패스 1387"/>
                                <path id="패스_1388" d="M111 139.3v1.6l-4.2-.5v-1.6z" class="cls-28" data-name="패스 1388"/>
                                <path id="패스_1389" d="M102.4 138.9l4.6-2.4-.3 1.7z" class="cls-31" data-name="패스 1389"/>
                                <path id="패스_1390" d="M107 136.5l-.3 1.7 4.7.7z" class="cls-28" data-name="패스 1390"/>
                                <path id="패스_1391" d="M106.7 138.2l-4.3.7v.7l4.3-.6z" class="cls-30" data-name="패스 1391"/>
                                <path id="패스_1392" d="M106.7 138.2l4.7.7v.6l-4.7-.5z" class="cls-29" data-name="패스 1392"/>
                                <path id="패스_1393" d="M106.6 157.4l-4.9-1v-15.7l4.9-.7z" class="cls-30" data-name="패스 1393"/>
                                <path id="패스_1394" d="M106.6 157.4l5.3-1v-15.8l-5.3-.6z" class="cls-29" data-name="패스 1394"/>
                            </g>
                            <g id="그룹_486" data-name="그룹 486">
                                <path id="패스_1395" d="M102.6 156.6l1 .2v-15.2l-1 .1z" class="cls-29" data-name="패스 1395"/>
                                <path id="패스_1396" d="M104.7 157l1 .2v-15.9l-1 .1z" class="cls-29" data-name="패스 1396"/>
                            </g>
                            <g id="그룹_487" data-name="그룹 487">
                                <path id="패스_1397" d="M110 156.8l1-.2v-14.9l-1-.1z" class="cls-28" data-name="패스 1397"/>
                                <path id="패스_1398" d="M107.9 157.2l1-.2v-15.6l-1-.1z" class="cls-28" data-name="패스 1398"/>
                            </g>
                        </g>
                        <g id="그룹_492" data-name="그룹 492">
                            <g id="그룹_489" data-name="그룹 489">
                                <path id="패스_1399" d="M106.6 178.4l-6.1-1.3v-24.6l6.1-.9z" class="cls-30" data-name="패스 1399"/>
                                <path id="패스_1400" d="M106.6 178.4l6.5-1.3v-24.8l-6.5-.7z" class="cls-29" data-name="패스 1400"/>
                            </g>
                            <g id="그룹_490" data-name="그룹 490">
                                <path id="패스_1401" d="M101.6 177.4l1.2.2v-24l-1.2.1z" class="cls-29" data-name="패스 1401"/>
                                <path id="패스_1402" d="M104.2 177.9l1.3.3v-24.9l-1.3.1z" class="cls-29" data-name="패스 1402"/>
                            </g>
                            <g id="그룹_491" data-name="그룹 491">
                                <path id="패스_1403" d="M110.8 177.6l1.2-.2v-23.7l-1.2-.1z" class="cls-28" data-name="패스 1403"/>
                                <path id="패스_1404" d="M108.1 178.1l1.3-.2v-24.5l-1.3-.1z" class="cls-28" data-name="패스 1404"/>
                            </g>
                        </g>
                    </g>
                </g>
                <g id="그룹_498" data-name="그룹 498">
                    <g id="그룹_495" data-name="그룹 495">
                        <ellipse id="타원_387" cx="5.7" cy="5.8" class="cls-17" data-name="타원 387" rx="5.7" ry="5.8" transform="translate(88.4 150.2)"/>
                        <path id="패스_1405" d="M89.1 157.5a5.826 5.826 0 0 1 5.8-5.9 6.387 6.387 0 0 1 3.3 1 5.3 5.3 0 0 0-9.6 3.2 5.932 5.932 0 0 0 .5 2.3z" class="cls-35" data-name="패스 1405"/>
                        <path id="패스_1406" d="M99.7 156.8a5.2 5.2 0 0 0-6.8 1.4 4.911 4.911 0 0 0-4 .2 5.653 5.653 0 0 0 10.8-1.6z" class="cls-15" data-name="패스 1406"/>
                        <ellipse id="타원_388" cx="4.8" cy="4.9" class="cls-17" data-name="타원 388" rx="4.8" ry="4.9" transform="translate(86.9 158.6)"/>
                        <path id="패스_1407" d="M87.6 164.3a4.034 4.034 0 0 1 4-4.1 4.756 4.756 0 0 1 2.3.7 3.585 3.585 0 0 0-6.5 2.2 2.934 2.934 0 0 0 .4 1.6.519.519 0 0 1-.2-.4z" class="cls-35" data-name="패스 1407"/>
                        <path id="패스_1408" d="M91.7 158.7h-.2c2.5.1 4.6 1.8 4.6 4s-2.1 4-4.8 4a4.841 4.841 0 0 1-4.3-2.3 4.826 4.826 0 0 0 4.7 4.1 4.9 4.9 0 0 0 0-9.8z" class="cls-15" data-name="패스 1408"/>
                        <path id="패스_1409" d="M95.5 175.3a2.775 2.775 0 0 1-1.8 0v-12.4h1.8v6.1l3.3-4.3.4.1-3.8 5.5v5z" class="cls-14" data-name="패스 1409"/>
                        <ellipse id="타원_389" cx="4.8" cy="4.9" class="cls-17" data-name="타원 389" rx="4.8" ry="4.9" transform="translate(93 155.9)"/>
                        <path id="패스_1410" d="M93.9 161.8a4.567 4.567 0 0 1 4.5-4.6 4.376 4.376 0 0 1 2.5.8 4.021 4.021 0 0 0-3.3-1.7 4.14 4.14 0 0 0-4.1 4.2 3.922 3.922 0 0 0 .4 1.8z" class="cls-35" data-name="패스 1410"/>
                        <path id="패스_1411" d="M98 164.6a5.19 5.19 0 0 1-5-3.7 4.935 4.935 0 0 0 4.8 4.8 4.831 4.831 0 0 0 4.6-3.4 5.136 5.136 0 0 1-4.4 2.3z" class="cls-15" data-name="패스 1411"/>
                    </g>
                    <g id="그룹_496" data-name="그룹 496">
                        <ellipse id="타원_390" cx="3.8" cy="3.9" class="cls-17" data-name="타원 390" rx="3.8" ry="3.9" transform="translate(101.2 154.2)"/>
                        <path id="패스_1412" d="M101.7 159.1a3.842 3.842 0 0 1 3.9-3.9 4.1 4.1 0 0 1 2.2.7 3.46 3.46 0 0 0-2.8-1.5 3.565 3.565 0 0 0-3.5 3.6 3.339 3.339 0 0 0 .3 1.5.6.6 0 0 1-.1-.4z" class="cls-35" data-name="패스 1412"/>
                        <path id="패스_1413" d="M108.7 158.6a3.422 3.422 0 0 0-4.5.9 3.279 3.279 0 0 0-2.7.1 3.755 3.755 0 0 0 3.4 2.2 3.563 3.563 0 0 0 3.8-3.2z" class="cls-15" data-name="패스 1413"/>
                        <circle id="타원_391" cx="3.2" cy="3.2" r="3.2" class="cls-17" data-name="타원 391" transform="translate(100.2 159.9)"/>
                        <path id="패스_1414" d="M100.7 163.6a2.689 2.689 0 0 1 2.7-2.7 2.456 2.456 0 0 1 1.5.5 2.276 2.276 0 0 0-1.9-1 2.456 2.456 0 0 0-2.4 2.5 4.253 4.253 0 0 0 .2 1.1.756.756 0 0 1-.1-.4z" class="cls-35" data-name="패스 1414"/>
                        <path id="패스_1415" d="M103.4 159.9h-.1c1.7.1 3 1.2 3 2.6 0 1.5-1.4 2.6-3.2 2.6a3.252 3.252 0 0 1-2.9-1.5 3.167 3.167 0 0 0 6.3-.5 3.019 3.019 0 0 0-3.1-3.2z" class="cls-15" data-name="패스 1415"/>
                        <path id="패스_1416" d="M106 170.9a1.275 1.275 0 0 1-1.2 0v-8.2h1.2v4l2.2-2.9.3.1-2.5 3.6z" class="cls-14" data-name="패스 1416"/>
                        <circle id="타원_392" cx="3.2" cy="3.2" r="3.2" class="cls-17" data-name="타원 392" transform="translate(104.3 158.1)"/>
                        <path id="패스_1417" d="M104.9 162a2.946 2.946 0 0 1 3-3 3.371 3.371 0 0 1 1.7.5 2.656 2.656 0 0 0-2.2-1.1 2.712 2.712 0 0 0-2.7 2.8 2.663 2.663 0 0 0 .3 1.2.756.756 0 0 1-.1-.4z" class="cls-35" data-name="패스 1417"/>
                        <path id="패스_1418" d="M107.6 163.8a3.335 3.335 0 0 1-3.3-2.5 3.159 3.159 0 0 0 3.2 3.2 3.212 3.212 0 0 0 3-2.3 3.356 3.356 0 0 1-2.9 1.6z" class="cls-15" data-name="패스 1418"/>
                    </g>
                    <g id="그룹_497" data-name="그룹 497">
                        <ellipse id="타원_393" cx="4.3" cy="4.4" class="cls-17" data-name="타원 393" rx="4.3" ry="4.4" transform="translate(110.8 153.4)"/>
                        <path id="패스_1419" d="M111.3 159a4.461 4.461 0 0 1 4.4-4.5 4.376 4.376 0 0 1 2.5.8 3.976 3.976 0 0 0-3.2-1.7 4.034 4.034 0 0 0-4 4.1 3.287 3.287 0 0 0 .4 1.7.6.6 0 0 1-.1-.4z" class="cls-35" data-name="패스 1419"/>
                        <path id="패스_1420" d="M119.3 158.4a3.849 3.849 0 0 0-5.1 1.1c-1.6-.4-2.5-.2-3 .2a4.306 4.306 0 0 0 3.9 2.5 4.386 4.386 0 0 0 4.2-3.8z" class="cls-15" data-name="패스 1420"/>
                        <ellipse id="타원_394" cx="3.6" cy="3.7" class="cls-17" data-name="타원 394" rx="3.6" ry="3.7" transform="translate(109.7 159.8)"/>
                        <path id="패스_1421" d="M110.2 164.1a3.031 3.031 0 0 1 3-3.1 3.371 3.371 0 0 1 1.7.5 2.656 2.656 0 0 0-2.2-1.1 2.775 2.775 0 0 0-2.7 2.8 2.663 2.663 0 0 0 .3 1.2.367.367 0 0 1-.1-.3z" class="cls-35" data-name="패스 1421"/>
                        <path id="패스_1422" d="M113.3 159.8h-.1a3.313 3.313 0 0 1 3.4 3c0 1.6-1.6 3-3.6 3a3.584 3.584 0 0 1-3.2-1.7 3.723 3.723 0 0 0 3.5 3.1 3.608 3.608 0 0 0 3.6-3.7 3.671 3.671 0 0 0-3.6-3.7z" class="cls-15" data-name="패스 1422"/>
                        <path id="패스_1423" d="M116.2 172.3a1.483 1.483 0 0 1-1.3 0V163h1.3v4.6l2.5-3.2.3.1-2.8 4.1z" class="cls-14" data-name="패스 1423"/>
                        <ellipse id="타원_395" cx="3.6" cy="3.7" class="cls-17" data-name="타원 395" rx="3.6" ry="3.7" transform="translate(114.3 157.7)"/>
                        <path id="패스_1424" d="M115 162.2a3.372 3.372 0 0 1 3.4-3.4 3.077 3.077 0 0 1 1.9.6 3.084 3.084 0 0 0-5.6 1.8 2.768 2.768 0 0 0 .3 1.3v-.3z" class="cls-35" data-name="패스 1424"/>
                        <path id="패스_1425" d="M118 164.3a3.78 3.78 0 0 1-3.7-2.8 3.585 3.585 0 0 0 3.6 3.6 3.54 3.54 0 0 0 3.4-2.6 3.864 3.864 0 0 1-3.3 1.8z" class="cls-15" data-name="패스 1425"/>
                    </g>
                </g>
                <path id="패스_1426" d="M136.3 169.4s-15-1-20.5-.3-29.2 6.2-29.5 8.6 10.3 6.5 20.8 4.8 44.6-13.8 29.2-13.1z" class="cls-4" data-name="패스 1426"/>
                <g id="그룹_499" data-name="그룹 499">
                    <path id="패스_1427" d="M174 93.2a5.834 5.834 0 0 0-5.2-3.2 5.135 5.135 0 0 0-2.5.6c-1-1.3-3.5-2.1-5.3-2.1a6.4 6.4 0 0 0-6 5c-1.9.5-2.5 2.2-2.5 4.3 0 2.5 2.5 4.2 4.9 4.2h16.2a4.375 4.375 0 0 0 4.4-4.4 4.446 4.446 0 0 0-4-4.4z" class="cls-19" data-name="패스 1427"/>
                    <path id="패스_1428" d="M170.4 94.4a4.627 4.627 0 0 0-4.2-2.8 4.032 4.032 0 0 0-2.2.6 4.945 4.945 0 0 0-3.8-1.8 4.851 4.851 0 0 0-4.8 4.1 3.759 3.759 0 0 0-2.9 3.7 3.9 3.9 0 0 0 3.9 3.9H170a3.9 3.9 0 0 0 3.9-3.9 3.811 3.811 0 0 0-3.5-3.8z" class="cls-20" data-name="패스 1428"/>
                </g>
                <ellipse id="타원_396" cx="20.8" cy="7.5" class="cls-5" data-name="타원 396" rx="20.8" ry="7.5" transform="translate(60.8 179.9)"/>
                <g id="그룹_500" data-name="그룹 500">
                    <path id="패스_1429" d="M88.6 188.5l-8.3-2.2v-16.6l8.3.9z" class="cls-30" data-name="패스 1429"/>
                    <path id="패스_1430" d="M88.6 188.5l8.2-3.3v-16.6l-8.2 2z" class="cls-29" data-name="패스 1430"/>
                </g>
                <g id="그룹_503" data-name="그룹 503">
                    <path id="패스_1431" d="M61.3 152.7v33.1c0 3.1 5.1 5.6 11.3 5.6s11.3-2.5 11.3-5.6v-33.1H61.3z" class="cls-11" data-name="패스 1431"/>
                    <ellipse id="타원_397" cx="11.3" cy="5.6" class="cls-28" data-name="타원 397" rx="11.3" ry="5.6" transform="translate(61.3 147.1)"/>
                    <g id="그룹_501" data-name="그룹 501">
                        <path id="패스_1432" d="M66.4 164.1a16.885 16.885 0 0 1-3.6-1.7v-4.7a29.241 29.241 0 0 0 3.6 1.7zm5.4-3.7a17.558 17.558 0 0 1-3.9-.6v4.7a26.292 26.292 0 0 0 3.9.6zm5.5-.5a26.292 26.292 0 0 1-3.9.6v4.7a17.558 17.558 0 0 0 3.9-.6zm5.2-2.2a29.241 29.241 0 0 1-3.6 1.7v4.7a16.885 16.885 0 0 0 3.6-1.7 36.845 36.845 0 0 1 0-4.7zm-16.1 7.9a19.515 19.515 0 0 1-3.6-1.7v4.7a29.241 29.241 0 0 0 3.6 1.7zm5.4 1a15.873 15.873 0 0 1-3.8-.6v4.7a25.009 25.009 0 0 0 3.8.6zm5.5-.5a27.13 27.13 0 0 1-3.8.6v4.7a15.873 15.873 0 0 0 3.8-.6 36.843 36.843 0 0 1 0-4.7zm5.1-2.1a29.241 29.241 0 0 1-3.6 1.7v4.7a19.515 19.515 0 0 0 3.6-1.7zm-16 7.8a19.515 19.515 0 0 1-3.6-1.7v4.7a14.623 14.623 0 0 0 3.6 1.6zm5.4 1.1a15.873 15.873 0 0 1-3.8-.6v4.7a16.518 16.518 0 0 0 3.8.5zm5.4-.6a25.009 25.009 0 0 1-3.8.6v4.7a23.205 23.205 0 0 0 3.8-.5zm5.2-2.1a29.241 29.241 0 0 1-3.6 1.7v4.7a28.332 28.332 0 0 0 3.6-1.6zm-16 7.9a28.332 28.332 0 0 1-3.6-1.6v4.7a14.623 14.623 0 0 0 3.6 1.6zm5.4 1a23.205 23.205 0 0 1-3.8-.5v4.7a16.518 16.518 0 0 0 3.8.5zm5.4-.6a16.518 16.518 0 0 1-3.8.5v4.7a23.205 23.205 0 0 0 3.8-.5zm5.2-2.1a14.623 14.623 0 0 1-3.6 1.6v4.7a28.332 28.332 0 0 0 3.6-1.6c-.1-1.6 0-3.1 0-4.7zm-16 7.9a28.332 28.332 0 0 1-3.6-1.6v4.7a14.623 14.623 0 0 0 3.6 1.6zm5.4 1a23.205 23.205 0 0 1-3.8-.5v4.7a16.518 16.518 0 0 0 3.8.5zm5.4-.6a16.518 16.518 0 0 1-3.8.5v4.7a23.205 23.205 0 0 0 3.8-.5zm5.1-2.1a14.623 14.623 0 0 1-3.6 1.6v4.7a28.332 28.332 0 0 0 3.6-1.6z" class="cls-28" data-name="패스 1432"/>
                    </g>
                    <path id="패스_1433" d="M77.9 150.3c2.1 0 3.9 1 3.9 2.1 0 1.2-1.7 2.1-3.9 2.1-1.9.2-2-4.1 0-4.2z" class="cls-36" data-name="패스 1433"/>
                    <g id="그룹_502" data-name="그룹 502">
                        <path id="패스_1434" d="M77.3 149.6c-2-1.3-4.2-1.5-4.9-.4s.3 3 2.3 4.3 4.2 1.5 4.9.4-.3-3-2.3-4.3zm-2.5 3.3c-1.5-1-2.3-2.5-1.8-3.3.6-.8 2.2-.7 3.8.3.6.4-1.3 3.4-2 3zm.5.3c.5.5 2.6-2.5 2-3 1.5 1 2.3 2.5 1.8 3.3-.6.9-2.3.7-3.8-.3z" class="cls-37" data-name="패스 1434"/>
                    </g>
                </g>
                <g id="그룹_509" data-name="그룹 509">
                    <path id="패스_1435" d="M74.2 205.3l20.2 10 26.8-6.7c-14.2-12.4-30.3-10.2-47-3.3z" class="cls-5" data-name="패스 1435"/>
                    <path id="패스_1436" d="M124.4 207.1a1.077 1.077 0 0 0 .2-.8c-.1-.3-.5-.4-.6-.2a1.909 1.909 0 0 0 .3-.8.67.67 0 0 0-.4-.7c-.3-.1-.6.1-.5.4a.779.779 0 0 0-.3-.7.473.473 0 0 0-.6.4 2.2 2.2 0 0 0 .2-1.4.842.842 0 0 0-.4-.7c-.3-.1-.6.1-.5.4a1.682 1.682 0 0 0 .8-2.2c-.1-.1-.1-.2-.2-.2a.365.365 0 0 0-.5.2c-.1.2-.1.4-.2.6a.807.807 0 0 0-.4-.9c-.3-.1-.7.3-.5.6 0-.3-.5-.4-.7-.2a1.344 1.344 0 0 0-.2.9 6.118 6.118 0 0 0-1.2-.5c-.1 0-.2-.1-.4 0s-.2.2-.3.4a2.052 2.052 0 0 0 .5 1.7.8.8 0 0 0-1.4.1 1.115 1.115 0 0 0 .8 1.3 1 1 0 0 0-1.5.7 1.322 1.322 0 0 0 1.2 1.4c-.4.1-.5.6-.4 1a1.085 1.085 0 0 0 .8.8c.5.3 1.4.2 1.6-.4a2.629 2.629 0 0 0 1.4.9 1.033 1.033 0 0 0 1.2-.9.778.778 0 0 0 .8.2c.3-.1.5-.5.7-.7.2-.3.5-.3.7-.7z" class="cls-17" data-name="패스 1436"/>
                    <path id="패스_1437" d="M123.4 207.2a1.421 1.421 0 0 0 .2-.6c-.1-.2-.4-.3-.5-.1a1.421 1.421 0 0 0 .2-.6.55.55 0 0 0-.3-.5c-.2-.1-.5.1-.4.3a.713.713 0 0 0-.3-.6c-.2-.1-.5.1-.4.3a1.978 1.978 0 0 0 .2-1.1.55.55 0 0 0-.3-.5c-.2-.1-.5.1-.4.3a1.32 1.32 0 0 0 .6-1.7c0-.1-.1-.1-.2-.2s-.3 0-.4.1a.6.6 0 0 0-.1.4.517.517 0 0 0-.3-.7c-.3-.1-.5.3-.4.5 0-.2-.4-.3-.5-.2a.844.844 0 0 0-.2.7 3.552 3.552 0 0 0-.9-.4h-.3c-.1 0-.2.2-.2.3a1.249 1.249 0 0 0 .4 1.3.569.569 0 0 0-1 .1c-.2.4.2.9.6 1a.813.813 0 0 0-1.2.6 1.009 1.009 0 0 0 .9 1.1.63.63 0 0 0-.3.8.9.9 0 0 0 .6.6.837.837 0 0 0 1.2-.3 2.1 2.1 0 0 0 1.1.7.737.737 0 0 0 .9-.7.471.471 0 0 0 .6.1c.2-.1.4-.4.5-.5.2-.2.4-.2.6-.5z" class="cls-15" data-name="패스 1437"/>
                    <g id="그룹_504" data-name="그룹 504">
                        <path id="패스_1438" d="M73.8 193.3a1.5 1.5 0 0 0-1 .2c-.3.2-.2.8.2.8a2.153 2.153 0 0 0-1.1.2.874.874 0 0 0-.5.9.542.542 0 0 0 .8.4 1.149 1.149 0 0 0-.6.9c0 .4.5.7.8.4a3.486 3.486 0 0 0-1.7.6c-.3.2-.6.6-.5.9 0 .4.5.7.8.4a2.032 2.032 0 0 0-3 .5.6.6 0 0 0-.1.4.536.536 0 0 0 .5.5 1.445 1.445 0 0 0 .7-.2.9.9 0 0 0-.7 1c.1.4.8.6 1 .2-.4.2-.2.8.2 1a1.8 1.8 0 0 0 1.2-.3 9.852 9.852 0 0 0 .2 1.7.52.52 0 0 0 .2.4c.2.2.4.1.7.1a2.339 2.339 0 0 0 1.6-1.6c-.5.6.2 1.6 1 1.5a1.313 1.313 0 0 0 .9-1.8 1.336 1.336 0 0 0 1.8 1.3 1.766 1.766 0 0 0 .8-2.3 1.209 1.209 0 0 0 1.4-.1 1.485 1.485 0 0 0 .4-1.4c0-.8-.6-1.7-1.4-1.6a3.33 3.33 0 0 0 .1-2.2 1.227 1.227 0 0 0-1.7-.8 1.129 1.129 0 0 0-.3-1.1c-.3-.2-.9-.2-1.3-.4-.6-.1-.8-.5-1.4-.5z" class="cls-17" data-name="패스 1438"/>
                        <path id="패스_1439" d="M74.9 194.5a1.077 1.077 0 0 0-.8.2c-.2.2-.1.6.1.6a1.949 1.949 0 0 0-.8.1.842.842 0 0 0-.4.7c0 .3.4.5.6.3a.935.935 0 0 0-.5.7c0 .3.4.5.6.3a2.106 2.106 0 0 0-1.3.5 1.012 1.012 0 0 0-.4.7c0 .3.4.5.6.3a1.55 1.55 0 0 0-2.3.4.367.367 0 0 0-.1.3c0 .2.2.3.4.4.2 0 .4-.1.6-.1a.688.688 0 0 0-.5.8c.1.3.6.5.8.1-.3.1-.2.6.2.7.3.1.6-.1.9-.2a5.853 5.853 0 0 0 .2 1.3c0 .1.1.2.2.3a.749.749 0 0 0 .5.1 1.8 1.8 0 0 0 1.2-1.2.859.859 0 0 0 .7 1.2 1.045 1.045 0 0 0 .7-1.4 1.011 1.011 0 0 0 1.4 1 1.32 1.32 0 0 0 .6-1.7.668.668 0 0 0 1-.1 1.128 1.128 0 0 0 .3-1.1c0-.6-.5-1.3-1.1-1.2a3.219 3.219 0 0 0 .1-1.7.961.961 0 0 0-1.3-.6.778.778 0 0 0-.2-.8c-.2-.2-.7-.2-1-.3-.4-.4-.5-.6-1-.6z" class="cls-15" data-name="패스 1439"/>
                    </g>
                    <path id="패스_1440" d="M118 208.2l-23.1 5.4v-15.3l23.1-4.6z" class="cls-31" data-name="패스 1440"/>
                    <path id="패스_1441" d="M115.7 200l-3.5.8v8.8l3.5-.8z" class="cls-38" data-name="패스 1441"/>
                    <path id="패스_1442" d="M115.2 200.1v8.3l-3 .7v.5l3.5-.8V200z" class="cls-39" data-name="패스 1442"/>
                    <g id="그룹_506" data-name="그룹 506">
                        <ellipse id="타원_398" cx=".2" cy=".3" class="cls-40" data-name="타원 398" rx=".2" ry=".3" transform="translate(112.7 204.6)"/>
                        <g id="그룹_505" data-name="그룹 505">
                            <path id="패스_1443" d="M112.8 204.7l.4.2v-.1l-.4-.1z" class="cls-41" data-name="패스 1443"/>
                            <path id="패스_1444" d="M113.1 205.1v-.1l-.4-.2a.349.349 0 0 0-.1.2z" class="cls-41" data-name="패스 1444"/>
                        </g>
                        <circle id="타원_399" cx=".3" cy=".3" r=".3" class="cls-40" data-name="타원 399" transform="translate(112.8 204.7)"/>
                        <path id="패스_1445" d="M113.1 205l.2-.1v-.1c0-.1-.1-.1-.2-.1s-.2.1-.2.3a.138.138 0 0 0 .2 0z" class="cls-41" data-name="패스 1445"/>
                        <ellipse id="타원_400" cx=".2" cy=".1" class="cls-42" data-name="타원 400" rx=".2" ry=".1" transform="rotate(-78.164 182.875 33.018)"/>
                    </g>
                    <path id="패스_1446" d="M94.9 213.6l-20.3-10.4v-12.5l20.3 7.6z" class="cls-32" data-name="패스 1446"/>
                    <path id="패스_1447" d="M118 193.7l-8.9 1.8-15.2-6.2-6.5-7.7 20.3 4.5z" class="cls-38" data-name="패스 1447"/>
                    <g id="그룹_507" data-name="그룹 507">
                        <path id="패스_1448" d="M82.3 203.3l-4.8-2.2v-5.6l4.8 2.1z" class="cls-34" data-name="패스 1448"/>
                        <path id="패스_1449" d="M82.3 202.3l-3.8-1.6V196l3.8 1.6z" class="cls-33" data-name="패스 1449"/>
                    </g>
                    <g id="그룹_508" data-name="그룹 508">
                        <path id="패스_1450" d="M90.8 207.7l-5.2-2.4V199l5.2 2.4z" class="cls-34" data-name="패스 1450"/>
                        <path id="패스_1451" d="M90.8 206.7l-4.1-1.9v-5.2l4.1 1.8z" class="cls-33" data-name="패스 1451"/>
                    </g>
                    <path id="패스_1452" d="M118 194.9l-23.1 4.7v-1.3l23.1-4.6z" class="cls-43" data-name="패스 1452"/>
                    <ellipse id="타원_401" cx="4.3" cy="3.8" class="cls-15" data-name="타원 401" rx="4.3" ry="3.8" transform="translate(68.3 200.4)"/>
                    <ellipse id="타원_402" cx="3.3" cy="2.5" class="cls-17" data-name="타원 402" rx="3.3" ry="2.5" transform="translate(69.1 200.7)"/>
                    <ellipse id="타원_403" cx="4" cy="3.5" class="cls-15" data-name="타원 403" rx="4" ry="3.5" transform="translate(71.9 202.2)"/>
                    <path id="패스_1453" d="M94.9 198.3a36.717 36.717 0 0 1 11.7-11.1l10 6.8z" class="cls-39" data-name="패스 1453"/>
                    <ellipse id="타원_404" cx="2.9" cy="2.2" class="cls-17" data-name="타원 404" rx="2.9" ry="2.2" transform="translate(72.8 203.6)"/>
                    <path id="패스_1454" d="M94.9 198.3l-20.3-7.6 12.8-9.1 20.3 4.5z" class="cls-38" data-name="패스 1454"/>
                    <path id="패스_1455" d="M106.6 187.2l-20.3-4.8 1.1-.8 20.3 4.5z" class="cls-43" data-name="패스 1455"/>
                    <path id="패스_1456" d="M94.9 199.6l-20.3-7.9v-1l20.3 7.6z" class="cls-43" data-name="패스 1456"/>
                </g>
                <g id="그룹_511" data-name="그룹 511">
                    <g id="그룹_510" data-name="그룹 510">
                        <path id="패스_1457" d="M185.8 143.9l-.4 24.7a3.3 3.3 0 0 0 1.4 0l-.4-24.7z" class="cls-21" data-name="패스 1457"/>
                        <path id="패스_1458" d="M187.2 143.9h-.8l.4 24.7c.2 0 .3-.1.5-.2a1.333 1.333 0 0 0 .5-.6z" class="cls-22" data-name="패스 1458"/>
                        <path id="패스_1459" d="M185 143.9l-.5 23.9c0 .2.2.4.5.6.1.1.3.1.5.2l.4-24.7z" class="cls-22" data-name="패스 1459"/>
                        <ellipse id="타원_405" cx="1.1" cy=".4" class="cls-21" data-name="타원 405" rx="1.1" ry=".4" transform="translate(185 143.5)"/>
                        <ellipse id="타원_406" cx="1.1" cy=".4" class="cls-22" data-name="타원 406" rx="1.1" ry=".4" transform="rotate(-4.7 1839.332 -2180.11)"/>
                        <ellipse id="타원_407" cx="1.1" cy=".4" class="cls-21" data-name="타원 407" rx="1.1" ry=".4" transform="rotate(-11.168 826.52 -874.06)"/>
                        <ellipse id="타원_408" cx="1.1" cy=".4" class="cls-22" data-name="타원 408" rx="1.1" ry=".4" transform="rotate(-14.407 660.077 -659.437)"/>
                        <ellipse id="타원_409" cx="1.1" cy=".4" class="cls-21" data-name="타원 409" rx="1.1" ry=".4" transform="rotate(-19.439 511.284 -467.826)"/>
                        <ellipse id="타원_410" cx="1.1" cy=".4" class="cls-22" data-name="타원 410" rx="1.1" ry=".4" transform="rotate(-19.439 510.917 -467.613)"/>
                        <ellipse id="타원_411" cx="1.1" cy=".4" class="cls-21" data-name="타원 411" rx="1.1" ry=".4" transform="rotate(-24.789 418.327 -348.422)"/>
                        <ellipse id="타원_412" cx="1.1" cy=".4" class="cls-22" data-name="타원 412" rx="1.1" ry=".4" transform="rotate(-34.946 320.058 -221.451)"/>
                        <ellipse id="타원_413" cx="1.1" cy=".4" class="cls-21" data-name="타원 413" rx="1.1" ry=".4" transform="rotate(-40.83 284.79 -176.124)"/>
                        <ellipse id="타원_414" cx="1.1" cy=".4" class="cls-22" data-name="타원 414" rx="1.1" ry=".4" transform="rotate(-48.868 250.185 -131.165)"/>
                        <ellipse id="타원_415" cx="1.1" cy=".4" class="cls-21" data-name="타원 415" rx="1.1" ry=".4" transform="rotate(-55.75 227.755 -102.364)"/>
                        <ellipse id="타원_416" cx="1.1" cy=".4" class="cls-22" data-name="타원 416" rx="1.1" ry=".4" transform="rotate(-63.666 207.754 -76.535)"/>
                        <ellipse id="타원_417" cx="1.1" cy=".4" class="cls-21" data-name="타원 417" rx="1.1" ry=".4" transform="rotate(-75.88 184.277 -46.337)"/>
                        <ellipse id="타원_418" cx="1.1" cy=".4" class="cls-22" data-name="타원 418" rx="1.1" ry=".4" transform="rotate(-85.334 170.112 -28.031)"/>
                    </g>
                    <path id="패스_1460" d="M182.1 141.7c0-1 .7-1.5 1.6-.9a3.56 3.56 0 0 1 1.6 2.8c0 1-.7 1.5-1.6.9a3.414 3.414 0 0 1-1.6-2.8z" class="cls-22" data-name="패스 1460"/>
                    <path id="패스_1461" d="M183.8 144.3l1.1-1.6 8.9 11.8-.5.7z" class="cls-21" data-name="패스 1461"/>
                    <path id="패스_1462" d="M184.8 142.5l-2.2-1.3.6-11.9 1 .6z" class="cls-21" data-name="패스 1462"/>
                    <path id="패스_1463" d="M183.6 144.2l-1.1-2.9-8.8 1.6.5 1.3z" class="cls-21" data-name="패스 1463"/>
                    <path id="패스_1464" d="M182.9 143.8a2.818 2.818 0 0 1-.6-2.9c.4-.6 1.4-.4 2.2.6a2.818 2.818 0 0 1 .6 2.9c-.4.7-1.4.4-2.2-.6z" class="cls-21" data-name="패스 1464"/>
                    <path id="패스_1465" d="M183.5 144.5l1.1-1.6 9.2 11.6-.5.7z" class="cls-20" data-name="패스 1465"/>
                    <path id="패스_1466" d="M184.5 142.7l-2.2-1.3.9-12.1 1 .6z" class="cls-20" data-name="패스 1466"/>
                    <path id="패스_1467" d="M183.3 144.4l-1.1-2.9-8.5 1.4.5 1.3z" class="cls-20" data-name="패스 1467"/>
                    <path id="패스_1468" d="M182.6 144a2.818 2.818 0 0 1-.6-2.9c.4-.6 1.4-.4 2.2.6a2.818 2.818 0 0 1 .6 2.9c-.5.7-1.4.4-2.2-.6z" class="cls-21" data-name="패스 1468"/>
                    <path id="패스_1469" d="M181.9 141.1l2.3 3.9.3-.1-2.3-4z" class="cls-21" data-name="패스 1469"/>
                    <path id="패스_1470" d="M182.3 144.2a2.818 2.818 0 0 1-.6-2.9c.4-.6 1.4-.4 2.2.6a2.818 2.818 0 0 1 .6 2.9c-.5.6-1.5.4-2.2-.6z" class="cls-22" data-name="패스 1470"/>
                    <path id="패스_1471" d="M182.6 143.7c-.4-.5-.6-1.3-.3-1.6.3-.4.8-.2 1.3.3.4.5.6 1.3.3 1.6-.3.4-.8.2-1.3-.3z" class="cls-20" data-name="패스 1471"/>
                    <path id="패스_1472" d="M182.1 142.9l.7 1.1.5.2-1.1-1.9z" class="cls-20" data-name="패스 1472"/>
                    <path id="패스_1473" d="M182.6 143.5c-.3-.4-.4-.9-.2-1.1s.5-.1.8.2c.3.4.4.8.2 1.1s-.5.2-.8-.2z" class="cls-21" data-name="패스 1473"/>
                    <path id="패스_1474" d="M182.3 143.7c-.3-.4-.4-.9-.2-1.1s.5-.1.8.2c.3.4.4.8.2 1.1-.1.3-.5.2-.8-.2z" class="cls-23" data-name="패스 1474"/>
                    <path id="패스_1475" d="M182.2 143.9c-.3-.4-.4-.9-.2-1.1s.5-.1.8.2c.3.4.4.8.2 1.1-.2.2-.5.1-.8-.2z" class="cls-21" data-name="패스 1475"/>
                    <path id="패스_1476" d="M182 144.1c-.3-.4-.4-.9-.2-1.1s.5-.1.8.2c.3.4.4.8.2 1.1-.2.2-.5.1-.8-.2z" class="cls-23" data-name="패스 1476"/>
                </g>
            </g>
        </g>
    </g>
</svg>
